%TF.GenerationSoftware,Altium Limited,Altium Designer,25.3.3 (18)*%
G04 Layer_Physical_Order=4*
G04 Layer_Color=16711680*
%FSLAX45Y45*%
%MOMM*%
%TF.SameCoordinates,C60B5D50-6102-498E-8A7F-52ABF2EF578F*%
%TF.FilePolarity,Positive*%
%TF.FileFunction,Copper,L4,Bot,Signal*%
%TF.Part,Single*%
G01*
G75*
%TA.AperFunction,SMDPad,CuDef*%
%ADD35C,1.20655*%
%TA.AperFunction,Conductor*%
%ADD56C,0.30000*%
%ADD57C,0.26017*%
%TA.AperFunction,ComponentPad*%
%ADD58C,0.90000*%
G04:AMPARAMS|DCode=59|XSize=1.25mm|YSize=0.6mm|CornerRadius=0.3mm|HoleSize=0mm|Usage=FLASHONLY|Rotation=90.000|XOffset=0mm|YOffset=0mm|HoleType=Round|Shape=RoundedRectangle|*
%AMROUNDEDRECTD59*
21,1,1.25000,0.00000,0,0,90.0*
21,1,0.65000,0.60000,0,0,90.0*
1,1,0.60000,0.00000,0.32500*
1,1,0.60000,0.00000,-0.32500*
1,1,0.60000,0.00000,-0.32500*
1,1,0.60000,0.00000,0.32500*
%
%ADD59ROUNDEDRECTD59*%
G04:AMPARAMS|DCode=60|XSize=2.6mm|YSize=1.3mm|CornerRadius=0.65mm|HoleSize=0mm|Usage=FLASHONLY|Rotation=180.000|XOffset=0mm|YOffset=0mm|HoleType=Round|Shape=RoundedRectangle|*
%AMROUNDEDRECTD60*
21,1,2.60000,0.00000,0,0,180.0*
21,1,1.30000,1.30000,0,0,180.0*
1,1,1.30000,-0.65000,0.00000*
1,1,1.30000,0.65000,0.00000*
1,1,1.30000,0.65000,0.00000*
1,1,1.30000,-0.65000,0.00000*
%
%ADD60ROUNDEDRECTD60*%
G04:AMPARAMS|DCode=61|XSize=0.6mm|YSize=1.9mm|CornerRadius=0.3mm|HoleSize=0mm|Usage=FLASHONLY|Rotation=90.000|XOffset=0mm|YOffset=0mm|HoleType=Round|Shape=RoundedRectangle|*
%AMROUNDEDRECTD61*
21,1,0.60000,1.30000,0,0,90.0*
21,1,0.00000,1.90000,0,0,90.0*
1,1,0.60000,0.65000,0.00000*
1,1,0.60000,0.65000,0.00000*
1,1,0.60000,-0.65000,0.00000*
1,1,0.60000,-0.65000,0.00000*
%
%ADD61ROUNDEDRECTD61*%
%ADD62C,0.60000*%
G04:AMPARAMS|DCode=63|XSize=0.85mm|YSize=0.5mm|CornerRadius=0.25mm|HoleSize=0mm|Usage=FLASHONLY|Rotation=270.000|XOffset=0mm|YOffset=0mm|HoleType=Round|Shape=RoundedRectangle|*
%AMROUNDEDRECTD63*
21,1,0.85000,0.00000,0,0,270.0*
21,1,0.35000,0.50000,0,0,270.0*
1,1,0.50000,0.00000,-0.17500*
1,1,0.50000,0.00000,0.17500*
1,1,0.50000,0.00000,0.17500*
1,1,0.50000,0.00000,-0.17500*
%
%ADD63ROUNDEDRECTD63*%
%ADD64C,1.54060*%
%ADD65R,1.54060X1.54060*%
%TA.AperFunction,ViaPad*%
%ADD66C,0.60000*%
%ADD67C,0.50000*%
G36*
X6572500Y7123507D02*
X6584435D01*
X6606487Y7114372D01*
X6623366Y7097494D01*
X6632500Y7075442D01*
Y7051572D01*
X6623366Y7029520D01*
X6606487Y7012641D01*
X6584435Y7003507D01*
X6572500D01*
X6572500Y7003507D01*
X6462500Y7003507D01*
X6450565D01*
X6428513Y7012641D01*
X6411634Y7029520D01*
X6402500Y7051572D01*
X6402500Y7063507D01*
X6402500Y7063508D01*
X6402500Y7123507D01*
X6404273Y7133103D01*
X6414205Y7149903D01*
X6429310Y7162261D01*
X6447744Y7168668D01*
X6457501Y7168506D01*
X6467257Y7168668D01*
X6485691Y7162261D01*
X6500796Y7149903D01*
X6510727Y7133102D01*
X6512500Y7123507D01*
X6512501Y7123507D01*
X6572500Y7123507D01*
D02*
G37*
G36*
X6572505Y7867490D02*
X6584439D01*
X6606492Y7876624D01*
X6623370Y7893503D01*
X6632505Y7915555D01*
Y7939425D01*
X6623370Y7961477D01*
X6606492Y7978355D01*
X6584439Y7987490D01*
X6572505D01*
X6572505D01*
X6462504Y7987489D01*
X6450570D01*
X6428517Y7978355D01*
X6411639Y7961477D01*
X6402504Y7939424D01*
X6402505Y7927489D01*
D01*
Y7867489D01*
X6404278Y7857894D01*
X6414209Y7841094D01*
X6429314Y7828735D01*
X6447749Y7822328D01*
X6457505Y7822490D01*
X6457505Y7822490D01*
X6467262Y7822327D01*
X6485696Y7828735D01*
X6500800Y7841093D01*
X6510732Y7857893D01*
X6512505Y7867489D01*
X6512504Y7867490D01*
X6572505Y7867490D01*
D02*
G37*
D35*
X6469535Y7920459D02*
D03*
X6469531Y7070538D02*
D03*
D56*
X8827500Y8006992D02*
Y8015109D01*
X8842500Y8030109D01*
Y8207500D01*
X7402500Y6097500D02*
X7517500Y5982500D01*
Y5895000D02*
Y5982500D01*
X8000000Y5410000D02*
Y5412500D01*
X8102500Y5515000D01*
Y5517500D01*
X6860000Y6397500D02*
Y6405618D01*
X6893750Y6439368D01*
Y6498750D01*
X6805000Y6475000D02*
Y6480710D01*
X6747500Y6545000D02*
X6750325D01*
X6801946Y6596620D01*
X6844120D01*
X6841790Y6665000D02*
X7692500Y7515710D01*
X6757500Y6665000D02*
X6841790D01*
X6844120Y6596620D02*
X7742500Y7495000D01*
X6805000Y6480710D02*
X7795000Y7470710D01*
X6893750Y6498750D02*
X7845000Y7450000D01*
X9345000Y6242500D02*
X9347500D01*
X9247500Y6340000D02*
X9345000Y6242500D01*
X9245000Y6340000D02*
X9247500D01*
X11465000Y6687500D02*
Y6688750D01*
X11627500Y6851250D01*
Y6852500D01*
X7845000Y7450000D02*
Y8097500D01*
X8550000Y8802500D01*
X9375000D01*
X7742500Y8140000D02*
X8550000Y8947500D01*
X8549290Y9017500D02*
X9515000D01*
X7692500Y7515710D02*
Y8160710D01*
X7795000Y7470710D02*
Y8118210D01*
X7742500Y7495000D02*
Y8140000D01*
X7795000Y8118210D02*
X8549290Y8872500D01*
X7692500Y8160710D02*
X8549290Y9017500D01*
X8550000Y8947500D02*
X9465000D01*
X8549290Y8872500D02*
X9422500D01*
X8512500Y6982500D02*
X8515000Y6985000D01*
X8512500Y6702500D02*
Y6982500D01*
X8510000Y6700000D02*
X8512500Y6702500D01*
X8374260Y6911760D02*
X8380000Y6917500D01*
X8295000Y6765000D02*
X8374260Y6844260D01*
Y6911760D01*
X8367500Y8927500D02*
X8553466Y9113466D01*
X9691534D01*
X9740000Y8932500D02*
Y9065000D01*
X8320000Y9027500D02*
X8505966Y9213466D01*
X9691534Y9113466D02*
X9740000Y9065000D01*
X8530966Y9163466D02*
X9719034D01*
X8505966Y9213466D02*
X9739744D01*
X9840000Y9113210D01*
X9719034Y9163466D02*
X9790000Y9092500D01*
X8345000Y8977500D02*
X8530966Y9163466D01*
X9790000Y8970000D02*
X9972500Y8787500D01*
X9790000Y8970000D02*
Y9092500D01*
X9840000Y8995000D02*
Y9113210D01*
X9740000Y8932500D02*
X9912500Y8760000D01*
X9840000Y8995000D02*
X10037500Y8797500D01*
X6855000Y8857500D02*
X7025000Y9027500D01*
X8320000D01*
X7080000Y8977500D02*
X8345000D01*
X7132500Y8927500D02*
X8367500D01*
X6962500Y8860000D02*
X7080000Y8977500D01*
X9515000Y9017500D02*
X9690000Y8842500D01*
X7062500Y8857500D02*
X7132500Y8927500D01*
X9912500Y8622500D02*
Y8760000D01*
Y8622500D02*
X10157500Y8377500D01*
X10245000D01*
X9972500Y8645000D02*
X10155000Y8462500D01*
X10247500D01*
X10037500Y8670000D02*
Y8797500D01*
X9972500Y8645000D02*
Y8787500D01*
X10037500Y8670000D02*
X10154038Y8553462D01*
X10248462D01*
X9375000Y8802500D02*
X9467340Y8710160D01*
X9422500Y8872500D02*
X9534676Y8760324D01*
X9465000Y8947500D02*
X9599186Y8813315D01*
X9360000Y8290000D02*
X9365000D01*
X8842500Y8207500D02*
X8980000Y8345000D01*
X10753750Y9776250D02*
X10755000Y9775000D01*
X10601250Y9776250D02*
X10753750D01*
X10600000Y9777500D02*
X10601250Y9776250D01*
X9002500Y8647500D02*
X9360000Y8290000D01*
X8997500Y8647500D02*
X9002500D01*
X11330000Y7037500D02*
X11332500Y7035000D01*
X11167500Y7037500D02*
X11330000D01*
X11165000Y7040000D02*
X11167500Y7037500D01*
X9967462Y8997538D02*
X9967500Y8997500D01*
X9967462Y8997538D02*
Y9152462D01*
X9967424Y9152500D02*
X9967462Y9152462D01*
X8668843Y9436205D02*
X8670000Y9435049D01*
X8493656Y9436205D02*
X8668843D01*
X8492500Y9437362D02*
X8493656Y9436205D01*
D57*
X7510000Y7572500D02*
X7510804Y7571696D01*
X7510000Y7572500D02*
Y7755000D01*
D58*
X10812500Y10375000D02*
D03*
X11212500D02*
D03*
X8555000Y4582500D02*
D03*
X8155000D02*
D03*
D59*
X6452500Y7895000D02*
D03*
X6452500Y7096000D02*
D03*
D60*
X6012500Y7063500D02*
D03*
Y7927500D02*
D03*
D61*
X6517500D02*
D03*
Y7063500D02*
D03*
D62*
X6317500Y7855500D02*
D03*
D63*
Y7135500D02*
D03*
D64*
X12340190Y5407500D02*
D03*
X9322690Y5455000D02*
D03*
D65*
X11839810Y5407500D02*
D03*
X8822310Y5455000D02*
D03*
D66*
X8640000Y4977500D02*
D03*
X8602500Y4897500D02*
D03*
X8827500Y8006992D02*
D03*
X7047500Y7990000D02*
D03*
X13612500Y6467500D02*
D03*
X11677500Y8067500D02*
D03*
X7402500Y6097500D02*
D03*
X7517500Y5895000D02*
D03*
X8000000Y5410000D02*
D03*
X8102500Y5517500D02*
D03*
X6525000Y6057500D02*
D03*
X7510804Y7571696D02*
D03*
X7510000Y7755000D02*
D03*
X11340000Y8767500D02*
D03*
X11347500Y9192500D02*
D03*
X13637500Y9025000D02*
D03*
X6860000Y6397500D02*
D03*
X6805000Y6475000D02*
D03*
X6747500Y6545000D02*
D03*
X6757500Y6665000D02*
D03*
X8101317Y6266183D02*
D03*
X7930000Y5597500D02*
D03*
X9347500Y6242500D02*
D03*
X9245000Y6340000D02*
D03*
X11465000Y6687500D02*
D03*
X11627500Y6852500D02*
D03*
X8030000Y8032500D02*
D03*
X8607500Y8205000D02*
D03*
X8326716Y8108284D02*
D03*
X8383284Y8051716D02*
D03*
X8515000Y6985000D02*
D03*
X8510000Y6700000D02*
D03*
X8730000Y7920000D02*
D03*
X9220000Y6822500D02*
D03*
X8910000Y7302500D02*
D03*
X8965000Y6917500D02*
D03*
X8380000D02*
D03*
X8295000Y6765000D02*
D03*
X8195000Y6830000D02*
D03*
X7062500Y8857500D02*
D03*
X6962500Y8860000D02*
D03*
X6855000Y8857500D02*
D03*
X10248462Y8553462D02*
D03*
X8392500Y8522500D02*
D03*
X7830000Y7330000D02*
D03*
X10245000Y8377500D02*
D03*
X10247500Y8462500D02*
D03*
X9690000Y8842500D02*
D03*
X9599186Y8813315D02*
D03*
X9534676Y8760324D02*
D03*
X9467340Y8710160D02*
D03*
X9365000Y8290000D02*
D03*
X8920000Y10170000D02*
D03*
X8980000Y8345000D02*
D03*
X8842500Y8207500D02*
D03*
X10755000Y9775000D02*
D03*
X10600000Y9777500D02*
D03*
X9962500Y6460000D02*
D03*
X9498297Y6711702D02*
D03*
X9585000Y5590000D02*
D03*
X7712500Y9140000D02*
D03*
X8920000Y10285000D02*
D03*
X8400000Y10167500D02*
D03*
X9347500Y10290000D02*
D03*
X9982500Y9317500D02*
D03*
X11292500Y9932500D02*
D03*
X10772500Y7665000D02*
D03*
X10247500Y8287500D02*
D03*
X10585000Y8357500D02*
D03*
X8997500Y8647500D02*
D03*
X10405962Y6860962D02*
D03*
X10527500Y6742500D02*
D03*
X12535000Y5357500D02*
D03*
X11535000Y4892500D02*
D03*
X10687500Y5247500D02*
D03*
X10245000Y5240000D02*
D03*
X7130000Y6127500D02*
D03*
X11165000Y7040000D02*
D03*
X11332500Y7035000D02*
D03*
X11065000Y6337500D02*
D03*
X6435000Y8102500D02*
D03*
X6712500Y7007500D02*
D03*
X6742500Y8052500D02*
D03*
X7180000Y7607500D02*
D03*
X9967424Y9152500D02*
D03*
X9967500Y8997500D02*
D03*
X8670000Y9435049D02*
D03*
X8492500Y9437362D02*
D03*
D67*
X7325000Y8542500D02*
D03*
X7400000D02*
D03*
X7249999D02*
D03*
%TF.MD5,9186d2911a58e6d7948688879279db5d*%
M02*
