%TF.GenerationSoftware,Altium Limited,Altium Designer,25.3.3 (18)*%
G04 Layer_Color=0*
%FSLAX45Y45*%
%MOMM*%
%TF.SameCoordinates,C60B5D50-6102-498E-8A7F-52ABF2EF578F*%
%TF.FilePolarity,Positive*%
%TF.FileFunction,Plated,1,4,PTH,Drill*%
%TF.Part,Single*%
G01*
G75*
%TA.AperFunction,ComponentDrill*%
%ADD100O,0.60000X1.25000*%
%ADD101O,2.00000X0.70000*%
%ADD102O,1.90000X0.60000*%
%ADD103C,0.99060*%
%TA.AperFunction,ViaDrill,NotFilled*%
%ADD104C,0.25000*%
%ADD105C,0.30000*%
%ADD106C,0.20000*%
D100*
X6452500Y7895000D02*
D03*
X6452500Y7096000D02*
D03*
D101*
X6012500Y7063500D02*
D03*
Y7927500D02*
D03*
D102*
X6517500D02*
D03*
Y7063500D02*
D03*
D103*
X12340190Y5407500D02*
D03*
X11839810D02*
D03*
X9322690Y5455000D02*
D03*
X8822310D02*
D03*
D104*
X8640000Y4977500D02*
D03*
X8602500Y4897500D02*
D03*
X8827500Y8006992D02*
D03*
X7047500Y7990000D02*
D03*
X13612500Y6467500D02*
D03*
X11677500Y8067500D02*
D03*
X7402500Y6097500D02*
D03*
X7517500Y5895000D02*
D03*
X8000000Y5410000D02*
D03*
X8102500Y5517500D02*
D03*
X6525000Y6057500D02*
D03*
X7510804Y7571696D02*
D03*
X7510000Y7755000D02*
D03*
X11340000Y8767500D02*
D03*
X11347500Y9192500D02*
D03*
X13637500Y9025000D02*
D03*
X6860000Y6397500D02*
D03*
X6805000Y6475000D02*
D03*
X6747500Y6545000D02*
D03*
X6757500Y6665000D02*
D03*
X8101317Y6266183D02*
D03*
X7930000Y5597500D02*
D03*
X9347500Y6242500D02*
D03*
X9245000Y6340000D02*
D03*
X11465000Y6687500D02*
D03*
X11627500Y6852500D02*
D03*
X8030000Y8032500D02*
D03*
X8607500Y8205000D02*
D03*
X8515000Y6985000D02*
D03*
X8510000Y6700000D02*
D03*
X8730000Y7920000D02*
D03*
X9220000Y6822500D02*
D03*
X8910000Y7302500D02*
D03*
X8965000Y6917500D02*
D03*
X8380000D02*
D03*
X8295000Y6765000D02*
D03*
X8195000Y6830000D02*
D03*
X7062500Y8857500D02*
D03*
X6962500Y8860000D02*
D03*
X6855000Y8857500D02*
D03*
X10248462Y8553462D02*
D03*
X8392500Y8522500D02*
D03*
X7830000Y7330000D02*
D03*
X10245000Y8377500D02*
D03*
X10247500Y8462500D02*
D03*
X9690000Y8842500D02*
D03*
X9599186Y8813315D02*
D03*
X9534676Y8760324D02*
D03*
X9467340Y8710160D02*
D03*
X9365000Y8290000D02*
D03*
X8920000Y10170000D02*
D03*
X8980000Y8345000D02*
D03*
X8842500Y8207500D02*
D03*
X10755000Y9775000D02*
D03*
X10600000Y9777500D02*
D03*
X9962500Y6460000D02*
D03*
X9498297Y6711702D02*
D03*
X9585000Y5590000D02*
D03*
X7712500Y9140000D02*
D03*
X8920000Y10285000D02*
D03*
X8400000Y10167500D02*
D03*
X9347500Y10290000D02*
D03*
X9982500Y9317500D02*
D03*
X11292500Y9932500D02*
D03*
X10772500Y7665000D02*
D03*
X10247500Y8287500D02*
D03*
X10585000Y8357500D02*
D03*
X8997500Y8647500D02*
D03*
X10405962Y6860962D02*
D03*
X10527500Y6742500D02*
D03*
X12535000Y5357500D02*
D03*
X11535000Y4892500D02*
D03*
X10687500Y5247500D02*
D03*
X10245000Y5240000D02*
D03*
X7130000Y6127500D02*
D03*
X11165000Y7040000D02*
D03*
X11332500Y7035000D02*
D03*
X11065000Y6337500D02*
D03*
X6435000Y8102500D02*
D03*
X6712500Y7007500D02*
D03*
X6742500Y8052500D02*
D03*
X7180000Y7607500D02*
D03*
X9967424Y9152500D02*
D03*
X9967500Y8997500D02*
D03*
X8670000Y9435049D02*
D03*
X8492500Y9437362D02*
D03*
D105*
X8326716Y8108284D02*
D03*
X8383284Y8051716D02*
D03*
D106*
X7325000Y8542500D02*
D03*
X7400000D02*
D03*
X7249999D02*
D03*
%TF.MD5,257ef59eb401db46971802274a144ede*%
M02*
