%TF.GenerationSoftware,Altium Limited,Altium Designer,25.3.3 (18)*%
G04 Layer_Color=8421504*
%FSLAX45Y45*%
%MOMM*%
%TF.SameCoordinates,C60B5D50-6102-498E-8A7F-52ABF2EF578F*%
%TF.FilePolarity,Positive*%
%TF.FileFunction,Paste,Top*%
%TF.Part,Single*%
G01*
G75*
%TA.AperFunction,BGAPad,CuDef*%
%ADD10R,0.90000X0.90000*%
%TA.AperFunction,SMDPad,CuDef*%
%ADD11R,1.50000X0.90000*%
%ADD12R,0.90000X1.50000*%
%ADD13R,1.27000X1.02000*%
%ADD14R,0.52000X0.52000*%
%ADD15R,2.60000X1.90000*%
%ADD16R,1.00000X0.80000*%
%ADD17R,1.50000X1.55000*%
%ADD18P,0.73539X4X180.0*%
%ADD21R,1.01213X1.20840*%
%ADD22R,1.15490X2.10620*%
G04:AMPARAMS|DCode=23|XSize=0.8mm|YSize=0.6mm|CornerRadius=0mm|HoleSize=0mm|Usage=FLASHONLY|Rotation=315.000|XOffset=0mm|YOffset=0mm|HoleType=Round|Shape=Rectangle|*
%AMROTATEDRECTD23*
4,1,4,-0.49497,0.07071,-0.07071,0.49497,0.49497,-0.07071,0.07071,-0.49497,-0.49497,0.07071,0.0*
%
%ADD23ROTATEDRECTD23*%

%ADD24R,0.80000X1.00000*%
%ADD25R,0.80000X0.70000*%
G04:AMPARAMS|DCode=26|XSize=0.36mm|YSize=0.25mm|CornerRadius=0mm|HoleSize=0mm|Usage=FLASHONLY|Rotation=315.000|XOffset=0mm|YOffset=0mm|HoleType=Round|Shape=Rectangle|*
%AMROTATEDRECTD26*
4,1,4,-0.21567,0.03889,-0.03889,0.21567,0.21567,-0.03889,0.03889,-0.21567,-0.21567,0.03889,0.0*
%
%ADD26ROTATEDRECTD26*%

G04:AMPARAMS|DCode=27|XSize=0.3mm|YSize=1.6mm|CornerRadius=0mm|HoleSize=0mm|Usage=FLASHONLY|Rotation=225.000|XOffset=0mm|YOffset=0mm|HoleType=Round|Shape=Round|*
%AMOVALD27*
21,1,1.30000,0.30000,0.00000,0.00000,315.0*
1,1,0.30000,-0.45962,0.45962*
1,1,0.30000,0.45962,-0.45962*
%
%ADD27OVALD27*%

G04:AMPARAMS|DCode=28|XSize=0.3mm|YSize=1.6mm|CornerRadius=0mm|HoleSize=0mm|Usage=FLASHONLY|Rotation=135.000|XOffset=0mm|YOffset=0mm|HoleType=Round|Shape=Round|*
%AMOVALD28*
21,1,1.30000,0.30000,0.00000,0.00000,225.0*
1,1,0.30000,0.45962,0.45962*
1,1,0.30000,-0.45962,-0.45962*
%
%ADD28OVALD28*%

%ADD29P,0.73539X4X90.0*%
%ADD30R,0.80000X0.80000*%
%ADD31R,1.00000X1.00000*%
%ADD32O,0.45000X1.30000*%
%TA.AperFunction,ConnectorPad*%
%ADD33R,0.90000X0.27000*%
%TA.AperFunction,SMDPad,CuDef*%
%ADD36R,1.30000X0.80000*%
%ADD37R,3.00000X2.10000*%
G04:AMPARAMS|DCode=38|XSize=1.55mm|YSize=1.5mm|CornerRadius=0mm|HoleSize=0mm|Usage=FLASHONLY|Rotation=315.000|XOffset=0mm|YOffset=0mm|HoleType=Round|Shape=Rectangle|*
%AMROTATEDRECTD38*
4,1,4,-1.07834,0.01768,-0.01768,1.07834,1.07834,-0.01768,0.01768,-1.07834,-1.07834,0.01768,0.0*
%
%ADD38ROTATEDRECTD38*%

G04:AMPARAMS|DCode=39|XSize=1.35mm|YSize=1.1mm|CornerRadius=0mm|HoleSize=0mm|Usage=FLASHONLY|Rotation=135.000|XOffset=0mm|YOffset=0mm|HoleType=Round|Shape=Rectangle|*
%AMROTATEDRECTD39*
4,1,4,0.86621,-0.08839,0.08839,-0.86621,-0.86621,0.08839,-0.08839,0.86621,0.86621,-0.08839,0.0*
%
%ADD39ROTATEDRECTD39*%

G04:AMPARAMS|DCode=40|XSize=1.3mm|YSize=1mm|CornerRadius=0mm|HoleSize=0mm|Usage=FLASHONLY|Rotation=135.000|XOffset=0mm|YOffset=0mm|HoleType=Round|Shape=Rectangle|*
%AMROTATEDRECTD40*
4,1,4,0.81318,-0.10607,0.10607,-0.81318,-0.81318,0.10607,-0.10607,0.81318,0.81318,-0.10607,0.0*
%
%ADD40ROTATEDRECTD40*%

G04:AMPARAMS|DCode=41|XSize=1.4549mm|YSize=1.5562mm|CornerRadius=0mm|HoleSize=0mm|Usage=FLASHONLY|Rotation=135.000|XOffset=0mm|YOffset=0mm|HoleType=Round|Shape=Rectangle|*
%AMROTATEDRECTD41*
4,1,4,1.06459,0.03581,-0.03581,-1.06459,-1.06459,-0.03581,0.03581,1.06459,1.06459,0.03581,0.0*
%
%ADD41ROTATEDRECTD41*%

G04:AMPARAMS|DCode=42|XSize=1.7mm|YSize=0.65mm|CornerRadius=0mm|HoleSize=0mm|Usage=FLASHONLY|Rotation=225.000|XOffset=0mm|YOffset=0mm|HoleType=Round|Shape=Rectangle|*
%AMROTATEDRECTD42*
4,1,4,0.37123,0.83085,0.83085,0.37123,-0.37123,-0.83085,-0.83085,-0.37123,0.37123,0.83085,0.0*
%
%ADD42ROTATEDRECTD42*%

%ADD43R,0.52000X0.52000*%
%ADD44R,0.54200X1.68500*%
G04:AMPARAMS|DCode=45|XSize=0.86107mm|YSize=0.23928mm|CornerRadius=0mm|HoleSize=0mm|Usage=FLASHONLY|Rotation=45.000|XOffset=0mm|YOffset=0mm|HoleType=Round|Shape=Rectangle|*
%AMROTATEDRECTD45*
4,1,4,-0.21983,-0.38903,-0.38903,-0.21983,0.21983,0.38903,0.38903,0.21983,-0.21983,-0.38903,0.0*
%
%ADD45ROTATEDRECTD45*%

G04:AMPARAMS|DCode=46|XSize=0.86107mm|YSize=0.23928mm|CornerRadius=0.11964mm|HoleSize=0mm|Usage=FLASHONLY|Rotation=45.000|XOffset=0mm|YOffset=0mm|HoleType=Round|Shape=RoundedRectangle|*
%AMROUNDEDRECTD46*
21,1,0.86107,0.00000,0,0,45.0*
21,1,0.62178,0.23928,0,0,45.0*
1,1,0.23928,0.21983,0.21983*
1,1,0.23928,-0.21983,-0.21983*
1,1,0.23928,-0.21983,-0.21983*
1,1,0.23928,0.21983,0.21983*
%
%ADD46ROUNDEDRECTD46*%
%ADD48R,1.00000X1.80000*%
%ADD49R,0.73504X0.86213*%
G04:AMPARAMS|DCode=50|XSize=0.8mm|YSize=0.6mm|CornerRadius=0mm|HoleSize=0mm|Usage=FLASHONLY|Rotation=225.000|XOffset=0mm|YOffset=0mm|HoleType=Round|Shape=Rectangle|*
%AMROTATEDRECTD50*
4,1,4,0.07071,0.49497,0.49497,0.07071,-0.07071,-0.49497,-0.49497,-0.07071,0.07071,0.49497,0.0*
%
%ADD50ROTATEDRECTD50*%

%ADD51R,1.70000X0.95000*%
%ADD52R,1.90000X2.60000*%
G04:AMPARAMS|DCode=54|XSize=0.25mm|YSize=0.5mm|CornerRadius=0.05mm|HoleSize=0mm|Usage=FLASHONLY|Rotation=180.000|XOffset=0mm|YOffset=0mm|HoleType=Round|Shape=RoundedRectangle|*
%AMROUNDEDRECTD54*
21,1,0.25000,0.40000,0,0,180.0*
21,1,0.15000,0.50000,0,0,180.0*
1,1,0.10000,-0.07500,0.20000*
1,1,0.10000,0.07500,0.20000*
1,1,0.10000,0.07500,-0.20000*
1,1,0.10000,-0.07500,-0.20000*
%
%ADD54ROUNDEDRECTD54*%
%ADD55R,1.35000X1.00000*%
%TA.AperFunction,NonConductor*%
G04:AMPARAMS|DCode=93|XSize=1.1mm|YSize=1.7mm|CornerRadius=0mm|HoleSize=0mm|Usage=FLASHONLY|Rotation=45.000|XOffset=0mm|YOffset=0mm|HoleType=Round|Shape=Rectangle|*
%AMROTATEDRECTD93*
4,1,4,0.21213,-0.98995,-0.98995,0.21213,-0.21213,0.98995,0.98995,-0.21213,0.21213,-0.98995,0.0*
%
%ADD93ROTATEDRECTD93*%

G04:AMPARAMS|DCode=94|XSize=0.85184mm|YSize=1.05184mm|CornerRadius=0mm|HoleSize=0mm|Usage=FLASHONLY|Rotation=45.000|XOffset=0mm|YOffset=0mm|HoleType=Round|Shape=Rectangle|*
%AMROTATEDRECTD94*
4,1,4,0.07071,-0.67305,-0.67305,0.07071,-0.07071,0.67305,0.67305,-0.07071,0.07071,-0.67305,0.0*
%
%ADD94ROTATEDRECTD94*%

%ADD95R,1.78900X0.85400*%
G36*
X8432782Y8267383D02*
X8381517Y8216118D01*
X8379055Y8213656D01*
X8372623Y8210992D01*
X8365661D01*
X8359229Y8213656D01*
X8356768Y8216118D01*
X8354306Y8218579D01*
X8351642Y8225011D01*
Y8231973D01*
X8354306Y8238405D01*
X8356768Y8240867D01*
X8356768Y8240867D01*
X8408033Y8292132D01*
X8432782Y8267383D01*
D02*
G37*
G36*
X8499957Y8200208D02*
X8448692Y8148943D01*
X8446230Y8146482D01*
X8439798Y8143817D01*
X8432836D01*
X8426404Y8146482D01*
X8423943Y8148943D01*
X8421482Y8151404D01*
X8418817Y8157836D01*
Y8164798D01*
X8421482Y8171230D01*
X8423943Y8173692D01*
X8423943Y8173692D01*
X8475208Y8224957D01*
X8499957Y8200208D01*
D02*
G37*
G36*
X8567132Y8133033D02*
X8515867Y8081768D01*
X8513405Y8079306D01*
X8506973Y8076642D01*
X8500011D01*
X8493579Y8079306D01*
X8491118Y8081768D01*
X8488657Y8084229D01*
X8485992Y8090661D01*
Y8097623D01*
X8488657Y8104055D01*
X8491118Y8106517D01*
X8491118Y8106516D01*
X8542383Y8157782D01*
X8567132Y8133033D01*
D02*
G37*
G36*
X8216421Y8080694D02*
X8218882Y8078232D01*
X8221343Y8075771D01*
X8224008Y8069339D01*
Y8062377D01*
X8221343Y8055945D01*
X8218882Y8053483D01*
X8218882Y8053484D01*
X8167617Y8002218D01*
X8142868Y8026967D01*
X8194133Y8078232D01*
X8196595Y8080694D01*
X8203027Y8083358D01*
X8209989D01*
X8216421Y8080694D01*
D02*
G37*
G36*
X8283596Y8013518D02*
X8286057Y8011057D01*
X8288518Y8008596D01*
X8291183Y8002164D01*
Y7995202D01*
X8288518Y7988770D01*
X8286057Y7986308D01*
Y7986308D01*
X8234792Y7935043D01*
X8210043Y7959792D01*
X8261308Y8011057D01*
X8263770Y8013518D01*
X8270202Y8016183D01*
X8277164D01*
X8283596Y8013518D01*
D02*
G37*
G36*
X8350771Y7946343D02*
X8353232Y7943882D01*
X8355693Y7941420D01*
X8358358Y7934988D01*
Y7928027D01*
X8355693Y7921595D01*
X8353232Y7919133D01*
X8301967Y7867868D01*
X8277218Y7892617D01*
X8328483Y7943882D01*
X8330945Y7946343D01*
X8337377Y7949008D01*
X8344339D01*
X8350771Y7946343D01*
D02*
G37*
D10*
X12700500Y7513150D02*
D03*
Y7653150D02*
D03*
Y7793150D02*
D03*
X12840500Y7513150D02*
D03*
Y7653150D02*
D03*
Y7793150D02*
D03*
X12980499Y7513150D02*
D03*
Y7653150D02*
D03*
X12980499Y7793150D02*
D03*
D11*
X11836500Y6931650D02*
D03*
Y7058650D02*
D03*
Y7185650D02*
D03*
Y7312650D02*
D03*
Y7439650D02*
D03*
Y7566650D02*
D03*
Y7693650D02*
D03*
Y7820650D02*
D03*
Y7947650D02*
D03*
Y8074650D02*
D03*
D12*
X13612500Y6628150D02*
D03*
X13485500Y6628150D02*
D03*
X13358501Y6628150D02*
D03*
X13231500D02*
D03*
X13104500D02*
D03*
X12977499D02*
D03*
X12850500Y6628150D02*
D03*
X12723500Y6628150D02*
D03*
X12596500D02*
D03*
X12469500D02*
D03*
X12342500D02*
D03*
X12215500D02*
D03*
X12088500D02*
D03*
X11961500D02*
D03*
Y8378150D02*
D03*
X12088500D02*
D03*
X12215500D02*
D03*
X12342500D02*
D03*
X12469500D02*
D03*
X12596500D02*
D03*
X12723500D02*
D03*
X12850500Y8378150D02*
D03*
X12977499Y8378150D02*
D03*
X13104500D02*
D03*
X13231500D02*
D03*
X13358501D02*
D03*
X13485500Y8378150D02*
D03*
X13612500Y8378150D02*
D03*
D13*
X12300000Y8918999D02*
D03*
Y9071000D02*
D03*
D14*
X13592499Y8612500D02*
D03*
X13512500D02*
D03*
X11455000Y8764999D02*
D03*
X11535000D02*
D03*
X11457501Y9192499D02*
D03*
X11537500Y9192499D02*
D03*
X11092500Y9930000D02*
D03*
X11172500D02*
D03*
D15*
X11862500Y8762499D02*
D03*
X11862500Y9192499D02*
D03*
D16*
X13022501Y8785000D02*
D03*
Y8935000D02*
D03*
X7960000Y5250000D02*
D03*
Y5100000D02*
D03*
X9582500Y5455000D02*
D03*
Y5305000D02*
D03*
D17*
X13632500Y8845000D02*
D03*
X13452499D02*
D03*
D18*
X8022500Y7877500D02*
D03*
X7965932Y7934068D02*
D03*
X9561716Y6648284D02*
D03*
X9618284Y6591716D02*
D03*
X10643284Y7729216D02*
D03*
X10586716Y7785784D02*
D03*
X10091716Y8245784D02*
D03*
X10148284Y8189216D02*
D03*
X7968284Y7196716D02*
D03*
X7911716Y7253284D02*
D03*
X7283284Y6176716D02*
D03*
X7226716Y6233284D02*
D03*
X8238284Y6134216D02*
D03*
X8181716Y6190784D02*
D03*
D21*
X7047500Y8265186D02*
D03*
Y8104813D02*
D03*
X7707500Y8970187D02*
D03*
Y8809813D02*
D03*
D22*
X7329935Y8190000D02*
D03*
X7515064D02*
D03*
D23*
X8599038Y8439038D02*
D03*
X8690962Y8530962D02*
D03*
X8854038Y8471538D02*
D03*
X8945962Y8563462D02*
D03*
X9334038Y8531538D02*
D03*
X9425962Y8623462D02*
D03*
X9138462Y8555962D02*
D03*
X9046538Y8464038D02*
D03*
D24*
X8002500Y8807500D02*
D03*
X8152500D02*
D03*
X10787500Y9917500D02*
D03*
X10637500D02*
D03*
X8822500Y9720000D02*
D03*
X8972500D02*
D03*
D25*
X8392500Y8807500D02*
D03*
Y8637500D02*
D03*
D26*
X9217801Y6977198D02*
D03*
X9277198Y6917802D02*
D03*
X8975302Y7232198D02*
D03*
X9034698Y7172802D02*
D03*
X9087198Y6960302D02*
D03*
X9027802Y7019698D02*
D03*
D27*
X10007457Y6737213D02*
D03*
X10042812Y6772568D02*
D03*
X10078168Y6807923D02*
D03*
X10113523Y6843279D02*
D03*
X10148878Y6878634D02*
D03*
X10184234Y6913989D02*
D03*
X10219589Y6949345D02*
D03*
X10254944Y6984700D02*
D03*
X10290300Y7020055D02*
D03*
X10325655Y7055411D02*
D03*
X10361010Y7090766D02*
D03*
X10396366Y7126121D02*
D03*
X10431721Y7161477D02*
D03*
X10467076Y7196832D02*
D03*
X10502432Y7232187D02*
D03*
X10537787Y7267543D02*
D03*
X9717543Y8087787D02*
D03*
X9682188Y8052431D02*
D03*
X9646832Y8017076D02*
D03*
X9611477Y7981720D02*
D03*
X9576122Y7946365D02*
D03*
X9540767Y7911010D02*
D03*
X9505411Y7875655D02*
D03*
X9470056Y7840299D02*
D03*
X9434700Y7804944D02*
D03*
X9399345Y7769588D02*
D03*
X9363990Y7734233D02*
D03*
X9328634Y7698878D02*
D03*
X9293279Y7663523D02*
D03*
X9257924Y7628167D02*
D03*
X9222568Y7592812D02*
D03*
X9187213Y7557457D02*
D03*
D28*
X10537787D02*
D03*
X10502432Y7592812D02*
D03*
X10467076Y7628167D02*
D03*
X10431721Y7663523D02*
D03*
X10396366Y7698878D02*
D03*
X10361010Y7734233D02*
D03*
X10325655Y7769588D02*
D03*
X10290300Y7804944D02*
D03*
X10254944Y7840299D02*
D03*
X10219589Y7875655D02*
D03*
X10184233Y7911010D02*
D03*
X10148878Y7946365D02*
D03*
X10113523Y7981720D02*
D03*
X10078168Y8017076D02*
D03*
X10042812Y8052431D02*
D03*
X10007457Y8087787D02*
D03*
X9187213Y7267543D02*
D03*
X9222568Y7232187D02*
D03*
X9257924Y7196832D02*
D03*
X9293279Y7161477D02*
D03*
X9328634Y7126121D02*
D03*
X9363990Y7090766D02*
D03*
X9399345Y7055411D02*
D03*
X9434700Y7020055D02*
D03*
X9470056Y6984700D02*
D03*
X9505411Y6949345D02*
D03*
X9540766Y6913989D02*
D03*
X9576122Y6878634D02*
D03*
X9611477Y6843279D02*
D03*
X9646832Y6807923D02*
D03*
X9682188Y6772568D02*
D03*
X9717543Y6737213D02*
D03*
D29*
X9101568Y7709068D02*
D03*
X9045000Y7652500D02*
D03*
X10108284Y6598284D02*
D03*
X10051716Y6541716D02*
D03*
D30*
X10787500Y10167000D02*
D03*
X11012500Y10167000D02*
D03*
X11237500D02*
D03*
X8580000Y4790500D02*
D03*
X8355000D02*
D03*
X8130000D02*
D03*
D31*
X10637500Y10357000D02*
D03*
X11387500Y10357000D02*
D03*
X8730000Y4600500D02*
D03*
X7980000D02*
D03*
D32*
X8792500Y10335000D02*
D03*
X8727500D02*
D03*
X8662500D02*
D03*
X8597500D02*
D03*
X8792500Y9925000D02*
D03*
X8727500D02*
D03*
X8662500D02*
D03*
X8597500D02*
D03*
D33*
X6587500Y7758000D02*
D03*
Y7708000D02*
D03*
Y7658000D02*
D03*
Y7608000D02*
D03*
Y7558000D02*
D03*
X6587501Y7508000D02*
D03*
X6587500Y7458000D02*
D03*
Y7408000D02*
D03*
Y7358000D02*
D03*
X6587501Y7308000D02*
D03*
X6587500Y7258000D02*
D03*
Y7208000D02*
D03*
X6427500Y7233000D02*
D03*
X6427500Y7283000D02*
D03*
X6427500Y7333000D02*
D03*
Y7383000D02*
D03*
Y7433000D02*
D03*
Y7483000D02*
D03*
Y7533000D02*
D03*
Y7583000D02*
D03*
Y7633000D02*
D03*
Y7683000D02*
D03*
Y7733000D02*
D03*
Y7783001D02*
D03*
D36*
X6292500Y8932500D02*
D03*
Y8807500D02*
D03*
Y8682500D02*
D03*
Y8557500D02*
D03*
Y8432500D02*
D03*
Y6552500D02*
D03*
Y6427500D02*
D03*
Y6302500D02*
D03*
Y6177500D02*
D03*
Y6052500D02*
D03*
D37*
X6017500Y8177500D02*
D03*
Y9187500D02*
D03*
Y5797500D02*
D03*
Y6807500D02*
D03*
D38*
X10452279Y8224779D02*
D03*
X10325000Y8097500D02*
D03*
X8731360Y7666361D02*
D03*
X8858640Y7793640D02*
D03*
D39*
X10483002Y6943002D02*
D03*
X10581997Y7041997D02*
D03*
D40*
X10609467Y6811967D02*
D03*
X10715533Y6918033D02*
D03*
X11149467Y6421967D02*
D03*
X11255533Y6528033D02*
D03*
D41*
X11025453Y6647047D02*
D03*
X10894547Y6777953D02*
D03*
D42*
X7971292Y6813390D02*
D03*
X7881489Y6903193D02*
D03*
X7791686Y6992995D02*
D03*
X7701884Y7082798D02*
D03*
X7185696Y6566610D02*
D03*
X7275499Y6476807D02*
D03*
X7365301Y6387005D02*
D03*
X7455104Y6297202D02*
D03*
D43*
X9485000Y10200000D02*
D03*
Y10280000D02*
D03*
X8395000Y10357500D02*
D03*
Y10277500D02*
D03*
X8607500Y5075000D02*
D03*
Y5155000D02*
D03*
X11532500Y5015000D02*
D03*
Y5095000D02*
D03*
D44*
X9487000Y9481400D02*
D03*
X9614000D02*
D03*
X9741000D02*
D03*
X9868000D02*
D03*
Y10018600D02*
D03*
X9741000D02*
D03*
X9614000D02*
D03*
X9487000D02*
D03*
D45*
X7918667Y5789732D02*
D03*
D46*
X7954022Y5754377D02*
D03*
X7989377Y5719022D02*
D03*
X8024733Y5683667D02*
D03*
X8226333Y5885267D02*
D03*
X8190978Y5920623D02*
D03*
X8155623Y5955978D02*
D03*
X8120267Y5991333D02*
D03*
D48*
X7150000Y7830000D02*
D03*
X6870000D02*
D03*
D49*
X7079039Y7607500D02*
D03*
X6955961D02*
D03*
D50*
X9005962Y6571538D02*
D03*
X8914038Y6663462D02*
D03*
X9081538Y6493462D02*
D03*
X9173462Y6401538D02*
D03*
D51*
X10685000Y5382500D02*
D03*
Y5662500D02*
D03*
X10242500Y5380000D02*
D03*
Y5660000D02*
D03*
D52*
X10677500Y5950000D02*
D03*
X10247500D02*
D03*
D54*
X7200000Y8637500D02*
D03*
X7250000D02*
D03*
X7300000D02*
D03*
X7350000D02*
D03*
X7400000D02*
D03*
X7450000D02*
D03*
Y8447500D02*
D03*
X7400000D02*
D03*
X7350000Y8447500D02*
D03*
X7300000D02*
D03*
X7250000Y8447500D02*
D03*
X7200000D02*
D03*
D55*
X11535000Y5572500D02*
D03*
Y5752500D02*
D03*
D93*
X8355001Y8079997D02*
D03*
D94*
X8072500Y5837500D02*
D03*
D95*
X7324991Y8542509D02*
D03*
%TF.MD5,74d82970aed6ab526ce0113ad0bb6eff*%
M02*
