%TF.GenerationSoftware,Altium Limited,Altium Designer,25.3.3 (18)*%
G04 Layer_Color=65535*
%FSLAX45Y45*%
%MOMM*%
%TF.SameCoordinates,C60B5D50-6102-498E-8A7F-52ABF2EF578F*%
%TF.FilePolarity,Positive*%
%TF.FileFunction,Legend,Top*%
%TF.Part,Single*%
G01*
G75*
%TA.AperFunction,NonConductor*%
%ADD68C,0.25000*%
%ADD69C,0.10000*%
%ADD70C,0.60000*%
%ADD71C,0.40000*%
%ADD72C,0.20000*%
%ADD73C,0.25400*%
%ADD74R,0.80000X0.15000*%
D68*
X13625000Y8508150D02*
G03*
X13625000Y8508150I-12500J0D01*
G01*
X8123548Y7970398D02*
G03*
X8123548Y7970398I-12500J0D01*
G01*
X9970459Y6687715D02*
G03*
X9970459Y6687715I-12500J0D01*
G01*
X11251000Y10072000D02*
G03*
X11251000Y10072000I-12500J0D01*
G01*
X8532500Y9925000D02*
G03*
X8532500Y9925000I-12500J0D01*
G01*
X6701000Y7758000D02*
G03*
X6701000Y7758000I-12500J0D01*
G01*
X6425000Y8932500D02*
G03*
X6425000Y8932500I-12500J0D01*
G01*
Y6552500D02*
G03*
X6425000Y6552500I-12500J0D01*
G01*
X8141500Y4885500D02*
G03*
X8141500Y4885500I-12500J0D01*
G01*
X8086322Y6915921D02*
G03*
X8086322Y6915921I-12500J0D01*
G01*
X9497400Y9333150D02*
G03*
X9497400Y9333150I-12500J0D01*
G01*
X7858726Y5717292D02*
G03*
X7858726Y5717292I-12500J0D01*
G01*
D69*
X9259925Y7014322D02*
G03*
X9259925Y7014322I-5000J0D01*
G01*
X9002575Y7135678D02*
G03*
X9002575Y7135678I-5000J0D01*
G01*
X9055075Y6923178D02*
G03*
X9055075Y6923178I-5000J0D01*
G01*
X12280000Y9930814D02*
Y9860828D01*
Y9930814D02*
X12303328D01*
X12313326Y9927481D01*
X12319992Y9920816D01*
X12323324Y9914150D01*
X12326657Y9904152D01*
Y9887489D01*
X12323324Y9877492D01*
X12319992Y9870826D01*
X12313326Y9864161D01*
X12303328Y9860828D01*
X12280000D01*
X12342320Y9887489D02*
X12382312D01*
Y9894155D01*
X12378979Y9900820D01*
X12375647Y9904152D01*
X12368981Y9907485D01*
X12358983D01*
X12352318Y9904152D01*
X12345653Y9897487D01*
X12342320Y9887489D01*
Y9880824D01*
X12345653Y9870826D01*
X12352318Y9864161D01*
X12358983Y9860828D01*
X12368981D01*
X12375647Y9864161D01*
X12382312Y9870826D01*
X12433967Y9897487D02*
X12430635Y9904152D01*
X12420637Y9907485D01*
X12410639D01*
X12400641Y9904152D01*
X12397308Y9897487D01*
X12400641Y9890822D01*
X12407306Y9887489D01*
X12423970Y9884157D01*
X12430635Y9880824D01*
X12433967Y9874159D01*
Y9870826D01*
X12430635Y9864161D01*
X12420637Y9860828D01*
X12410639D01*
X12400641Y9864161D01*
X12397308Y9870826D01*
X12455296Y9930814D02*
X12458629Y9927481D01*
X12461961Y9930814D01*
X12458629Y9934146D01*
X12455296Y9930814D01*
X12458629Y9907485D02*
Y9860828D01*
X12514284Y9907485D02*
Y9854163D01*
X12510951Y9844165D01*
X12507618Y9840833D01*
X12500953Y9837500D01*
X12490955D01*
X12484290Y9840833D01*
X12514284Y9897487D02*
X12507618Y9904152D01*
X12500953Y9907485D01*
X12490955D01*
X12484290Y9904152D01*
X12477625Y9897487D01*
X12474292Y9887489D01*
Y9880824D01*
X12477625Y9870826D01*
X12484290Y9864161D01*
X12490955Y9860828D01*
X12500953D01*
X12507618Y9864161D01*
X12514284Y9870826D01*
X12532946Y9907485D02*
Y9860828D01*
Y9894155D02*
X12542944Y9904152D01*
X12549609Y9907485D01*
X12559607D01*
X12566273Y9904152D01*
X12569605Y9894155D01*
Y9860828D01*
X12587934Y9887489D02*
X12627926D01*
Y9894155D01*
X12624593Y9900820D01*
X12621261Y9904152D01*
X12614596Y9907485D01*
X12604598D01*
X12597932Y9904152D01*
X12591267Y9897487D01*
X12587934Y9887489D01*
Y9880824D01*
X12591267Y9870826D01*
X12597932Y9864161D01*
X12604598Y9860828D01*
X12614596D01*
X12621261Y9864161D01*
X12627926Y9870826D01*
X12682914Y9930814D02*
Y9860828D01*
Y9897487D02*
X12676249Y9904152D01*
X12669584Y9907485D01*
X12659586D01*
X12652921Y9904152D01*
X12646255Y9897487D01*
X12642923Y9887489D01*
Y9880824D01*
X12646255Y9870826D01*
X12652921Y9864161D01*
X12659586Y9860828D01*
X12669584D01*
X12676249Y9864161D01*
X12682914Y9870826D01*
X12756565Y9930814D02*
Y9860828D01*
Y9897487D02*
X12763230Y9904152D01*
X12769895Y9907485D01*
X12779893D01*
X12786559Y9904152D01*
X12793224Y9897487D01*
X12796557Y9887489D01*
Y9880824D01*
X12793224Y9870826D01*
X12786559Y9864161D01*
X12779893Y9860828D01*
X12769895D01*
X12763230Y9864161D01*
X12756565Y9870826D01*
X12814886Y9907485D02*
X12834882Y9860828D01*
X12854877Y9907485D02*
X12834882Y9860828D01*
X12828217Y9847498D01*
X12821552Y9840833D01*
X12814886Y9837500D01*
X12811552D01*
X12921530Y9930814D02*
Y9860828D01*
Y9930814D02*
X12968185Y9860828D01*
Y9930814D02*
Y9860828D01*
X12994180Y9930814D02*
X12997514Y9927481D01*
X13000845Y9930814D01*
X12997514Y9934146D01*
X12994180Y9930814D01*
X12997514Y9907485D02*
Y9860828D01*
X13013177Y9930814D02*
Y9860828D01*
X13046503Y9907485D02*
X13013177Y9874159D01*
X13026508Y9887489D02*
X13049835Y9860828D01*
X13077496Y9907485D02*
X13070831Y9904152D01*
X13064166Y9897487D01*
X13060834Y9887489D01*
Y9880824D01*
X13064166Y9870826D01*
X13070831Y9864161D01*
X13077496Y9860828D01*
X13087494D01*
X13094159Y9864161D01*
X13100826Y9870826D01*
X13104156Y9880824D01*
Y9887489D01*
X13100826Y9897487D01*
X13094159Y9904152D01*
X13087494Y9907485D01*
X13077496D01*
X13119487Y9930814D02*
Y9860828D01*
X13174142Y9907485D02*
Y9860828D01*
Y9897487D02*
X13167477Y9904152D01*
X13160812Y9907485D01*
X13150813D01*
X13144148Y9904152D01*
X13137485Y9897487D01*
X13134151Y9887489D01*
Y9880824D01*
X13137485Y9870826D01*
X13144148Y9864161D01*
X13150813Y9860828D01*
X13160812D01*
X13167477Y9864161D01*
X13174142Y9870826D01*
X13209468Y9907485D02*
X13202803Y9904152D01*
X13196138Y9897487D01*
X13192805Y9887489D01*
Y9880824D01*
X13196138Y9870826D01*
X13202803Y9864161D01*
X13209468Y9860828D01*
X13219466D01*
X13226132Y9864161D01*
X13232797Y9870826D01*
X13236130Y9880824D01*
Y9887489D01*
X13232797Y9897487D01*
X13226132Y9904152D01*
X13219466Y9907485D01*
X13209468D01*
X13288118Y9897487D02*
X13284785Y9904152D01*
X13274788Y9907485D01*
X13264790D01*
X13254791Y9904152D01*
X13251459Y9897487D01*
X13254791Y9890822D01*
X13261456Y9887489D01*
X13278120Y9884157D01*
X13284785Y9880824D01*
X13288118Y9874159D01*
Y9870826D01*
X13284785Y9864161D01*
X13274788Y9860828D01*
X13264790D01*
X13254791Y9864161D01*
X13251459Y9870826D01*
X13357770Y9930814D02*
Y9860828D01*
X13409093Y9897487D02*
X13405760Y9904152D01*
X13395763Y9907485D01*
X13385764D01*
X13375766Y9904152D01*
X13372433Y9897487D01*
X13375766Y9890822D01*
X13382433Y9887489D01*
X13399095Y9884157D01*
X13405760Y9880824D01*
X13409093Y9874159D01*
Y9870826D01*
X13405760Y9864161D01*
X13395763Y9860828D01*
X13385764D01*
X13375766Y9864161D01*
X13372433Y9870826D01*
X13463748Y9907485D02*
Y9860828D01*
Y9897487D02*
X13457083Y9904152D01*
X13450417Y9907485D01*
X13440419D01*
X13433754Y9904152D01*
X13427089Y9897487D01*
X13423756Y9887489D01*
Y9880824D01*
X13427089Y9870826D01*
X13433754Y9864161D01*
X13440419Y9860828D01*
X13450417D01*
X13457083Y9864161D01*
X13463748Y9870826D01*
X13522401Y9907485D02*
Y9860828D01*
Y9897487D02*
X13515736Y9904152D01*
X13509071Y9907485D01*
X13499074D01*
X13492409Y9904152D01*
X13485744Y9897487D01*
X13482410Y9887489D01*
Y9880824D01*
X13485744Y9870826D01*
X13492409Y9864161D01*
X13499074Y9860828D01*
X13509071D01*
X13515736Y9864161D01*
X13522401Y9870826D01*
X13541064Y9930814D02*
Y9860828D01*
X13574391Y9907485D02*
X13541064Y9874159D01*
X13554395Y9887489D02*
X13577724Y9860828D01*
X13643709Y9930814D02*
Y9860828D01*
Y9930814D02*
X13673703D01*
X13683701Y9927481D01*
X13687033Y9924148D01*
X13690366Y9917483D01*
Y9910818D01*
X13687033Y9904152D01*
X13683701Y9900820D01*
X13673703Y9897487D01*
X13643709D02*
X13673703D01*
X13683701Y9894155D01*
X13687033Y9890822D01*
X13690366Y9884157D01*
Y9874159D01*
X13687033Y9867494D01*
X13683701Y9864161D01*
X13673703Y9860828D01*
X13643709D01*
X13712695Y9930814D02*
X13716026Y9927481D01*
X13719360Y9930814D01*
X13716026Y9934146D01*
X13712695Y9930814D01*
X13716026Y9907485D02*
Y9860828D01*
X13741689Y9930814D02*
Y9874159D01*
X13745021Y9864161D01*
X13751686Y9860828D01*
X13758353D01*
X13731691Y9907485D02*
X13755019D01*
X13805008Y9897487D02*
X13801675Y9904152D01*
X13791678Y9907485D01*
X13781680D01*
X13771683Y9904152D01*
X13768349Y9897487D01*
X13771683Y9890822D01*
X13778346Y9887489D01*
X13795010Y9884157D01*
X13801675Y9880824D01*
X13805008Y9874159D01*
Y9870826D01*
X13801675Y9864161D01*
X13791678Y9860828D01*
X13781680D01*
X13771683Y9864161D01*
X13768349Y9870826D01*
X13826337Y9930814D02*
X13829671Y9927481D01*
X13833002Y9930814D01*
X13829671Y9934146D01*
X13826337Y9930814D01*
X13829671Y9907485D02*
Y9860828D01*
X13845332Y9930814D02*
Y9860828D01*
X13878659Y9907485D02*
X13845332Y9874159D01*
X13858662Y9887489D02*
X13881992Y9860828D01*
X13932980Y9907485D02*
Y9860828D01*
Y9897487D02*
X13926315Y9904152D01*
X13919650Y9907485D01*
X13909653D01*
X13902988Y9904152D01*
X13896323Y9897487D01*
X13892989Y9887489D01*
Y9880824D01*
X13896323Y9870826D01*
X13902988Y9864161D01*
X13909653Y9860828D01*
X13919650D01*
X13926315Y9864161D01*
X13932980Y9870826D01*
X13988303Y9897487D02*
X13984970Y9904152D01*
X13974973Y9907485D01*
X13964973D01*
X13954976Y9904152D01*
X13951643Y9897487D01*
X13954976Y9890822D01*
X13961642Y9887489D01*
X13978305Y9884157D01*
X13984970Y9880824D01*
X13988303Y9874159D01*
Y9870826D01*
X13984970Y9864161D01*
X13974973Y9860828D01*
X13964973D01*
X13954976Y9864161D01*
X13951643Y9870826D01*
D70*
X9892500Y6903383D02*
G03*
X9892500Y6903383I-30000J0D01*
G01*
D71*
X8645000Y10110000D02*
G03*
X8645000Y10110000I-20000J0D01*
G01*
D72*
X13695000Y8410650D02*
X14369000D01*
X11804000D02*
X11879000D01*
X11804000Y6595650D02*
Y6849150D01*
Y8157150D02*
Y8410650D01*
X13695000Y6595650D02*
X14369000D01*
X11804000D02*
X11879000D01*
X14369000D02*
Y8410650D01*
X12190000Y8880800D02*
Y9109199D01*
X12410000Y9109199D02*
X12410000Y8880800D01*
X13502499Y8549000D02*
X13602499D01*
X13502499Y8676000D02*
X13602499D01*
X11445000Y8828499D02*
X11545001D01*
X11445000Y8701499D02*
X11545000D01*
X12030000Y9287499D02*
X12047500Y9287499D01*
X11677500D02*
X11695000Y9287499D01*
X11677500Y8667499D02*
Y9287499D01*
X12030000Y8667499D02*
X12047500Y8667499D01*
X11677500D02*
X11695000Y8667499D01*
X12047500Y8667499D02*
Y9287499D01*
X11447501Y9255999D02*
X11547500D01*
X11447501Y9128999D02*
X11547500D01*
X7913960Y7896238D02*
X7984670Y7825528D01*
X8003762Y7986041D02*
X8074472Y7915330D01*
X8132262Y8080000D02*
X8355000Y8302739D01*
X8574203Y8083536D02*
X8577739Y8080000D01*
X8355000Y8302739D02*
X8358535Y8299203D01*
X8355000Y7857261D02*
X8577739Y8080000D01*
X8351465Y7860797D02*
X8355000Y7857261D01*
X8132262Y8080000D02*
X8135797Y8076465D01*
X6956893Y8044393D02*
Y8325606D01*
X7138107Y8044393D02*
Y8325606D01*
X7272189Y8040000D02*
X7572810D01*
X7272189Y8340000D02*
X7572810D01*
X9862500Y6761961D02*
X10513038Y7412500D01*
X9211962D02*
X9862500Y8063038D01*
X9211962Y7412500D02*
X9862500Y6761961D01*
Y8063038D02*
X10513038Y7412500D01*
X9082830Y7600528D02*
X9153541Y7671238D01*
X8993028Y7690330D02*
X9063738Y7761041D01*
X9599546Y6700257D02*
X9670257Y6629546D01*
X9509743Y6610454D02*
X9580454Y6539743D01*
X10534743Y7747954D02*
X10605454Y7677243D01*
X10624546Y7837757D02*
X10695257Y7767046D01*
X11347500Y10175000D02*
X11347500Y10269500D01*
X11347500Y10645000D02*
X11347500Y10444500D01*
X10677500Y10645000D02*
X11347500Y10645000D01*
X10677500Y10175000D02*
Y10269500D01*
Y10444500D02*
Y10645000D01*
Y10175000D02*
X10710000Y10175000D01*
X10865000D02*
X10935000Y10175000D01*
X11090000D02*
X11160000D01*
X11315000D02*
X11347500Y10175000D01*
X8845000Y10030000D02*
X8845000Y10230000D01*
X8545000D02*
X8545000Y10030000D01*
X8545000Y10230000D02*
X8845000D01*
X8545000Y10030000D02*
X8845000D01*
X6180000Y7043500D02*
X6365000D01*
X6180000Y7947500D02*
X6365000D01*
X5897500Y8320000D02*
Y9045000D01*
X6205000Y9242500D02*
X6287500D01*
Y8122500D02*
Y8355000D01*
Y9010000D02*
Y9242500D01*
X6205000Y8122500D02*
X6287500D01*
X5897500Y5940000D02*
Y6665000D01*
X6205000Y6862500D02*
X6287500Y6862500D01*
X6287500Y5742500D02*
Y5975000D01*
X6287500Y6630000D02*
Y6862500D01*
X6205000Y5742500D02*
X6287500D01*
X10129546Y8297757D02*
X10200256Y8227046D01*
X10039743Y8207954D02*
X10110454Y8137244D01*
X10089546Y6489743D02*
X10160257Y6560454D01*
X9999743Y6579546D02*
X10070454Y6650256D01*
X10926412Y6912696D02*
X11160196Y6678912D01*
X10759804Y6746088D02*
X10993588Y6512304D01*
X8020000Y4688000D02*
Y4782500D01*
Y4312500D02*
Y4513000D01*
Y4312500D02*
X8690000D01*
Y4688000D02*
Y4782500D01*
Y4312500D02*
Y4513000D01*
X8657500Y4782500D02*
X8690000D01*
X8432500D02*
X8502500D01*
X8207500D02*
X8277500D01*
X8020000D02*
X8052500D01*
X7859743Y7215454D02*
X7930454Y7144743D01*
X7949546Y7305257D02*
X8020257Y7234546D01*
X7578847Y6311344D02*
X7957150Y6689647D01*
X7199838Y6690354D02*
X7205141Y6685050D01*
X7573544Y6316648D02*
X7578847Y6311344D01*
X7199838Y6690354D02*
X7578140Y7068656D01*
X7583444Y7063353D01*
X7951846Y6694950D02*
X7957150Y6689647D01*
X7174743Y6195454D02*
X7245454Y6124744D01*
X7264546Y6285257D02*
X7335256Y6214546D01*
X11082500Y9993500D02*
X11182500D01*
X11082500Y9866500D02*
X11182500D01*
X9421500Y10190000D02*
Y10290000D01*
X9548500Y10190000D02*
Y10290000D01*
X9428600Y9603150D02*
Y9896850D01*
X9926400Y9603150D02*
Y9896850D01*
X8129743Y6152954D02*
X8200454Y6082243D01*
X8219546Y6242757D02*
X8290257Y6172046D01*
X7874510Y5823358D02*
X8086642Y6035490D01*
X8058358Y5639510D02*
X8270490Y5851642D01*
X8458500Y10267500D02*
Y10367500D01*
X8331500Y10267500D02*
Y10367500D01*
X6957500Y7740000D02*
X7062500D01*
X6957500Y7920000D02*
X7062500D01*
X6942500Y7522500D02*
X7092500D01*
X6942500Y7692500D02*
X7092500D01*
X8544000Y5065000D02*
Y5165000D01*
X8671000Y5065000D02*
Y5165000D01*
X11764880Y5522000D02*
Y5732620D01*
Y5082380D02*
Y5293000D01*
Y5082380D02*
X12415120D01*
Y5522000D02*
Y5732620D01*
Y5082380D02*
Y5293000D01*
X11764880Y5732620D02*
X12415120D01*
X11469000Y5005000D02*
Y5105000D01*
X11596000Y5005000D02*
Y5105000D01*
X10595000Y5467500D02*
Y5577500D01*
X10775000Y5467500D02*
Y5577500D01*
X10152500Y6117500D02*
Y6135000D01*
Y5765000D02*
Y5782500D01*
Y5765000D02*
X10772500D01*
Y6117500D02*
Y6135000D01*
Y5765000D02*
Y5782500D01*
X10152500Y6135000D02*
X10772500D01*
X10152500Y5465000D02*
Y5575000D01*
X10332500Y5465000D02*
Y5575000D01*
X7155000Y8437500D02*
Y8490000D01*
Y8632500D02*
Y8647500D01*
X7494999Y8632500D02*
Y8647500D01*
Y8437499D02*
Y8452500D01*
X7616893Y8749393D02*
Y9030607D01*
X7798107Y8749393D02*
Y9030607D01*
X11477500Y5652500D02*
Y5672500D01*
X11592500Y5652500D02*
Y5672500D01*
X8747380Y5569500D02*
Y5780120D01*
Y5129880D02*
Y5340500D01*
Y5129880D02*
X9397620D01*
Y5569500D02*
Y5780120D01*
Y5129880D02*
Y5340500D01*
X8747380Y5780120D02*
X9397620D01*
X12582500Y10055056D02*
X12647800D01*
X12669567Y10062311D01*
X12676823Y10069567D01*
X12684078Y10084078D01*
Y10105845D01*
X12676823Y10120356D01*
X12669567Y10127612D01*
X12647800Y10134867D01*
X12582500D01*
Y9982500D01*
X12718180Y10134867D02*
Y9982500D01*
X12750104Y10084078D02*
Y10011522D01*
X12757360Y9989755D01*
X12771871Y9982500D01*
X12793638D01*
X12808150Y9989755D01*
X12829915Y10011522D01*
Y10084078D02*
Y9982500D01*
X12949632Y10062311D02*
X12942377Y10076823D01*
X12920610Y10084078D01*
X12898843D01*
X12877077Y10076823D01*
X12869821Y10062311D01*
X12877077Y10047800D01*
X12891588Y10040545D01*
X12927866Y10033289D01*
X12942377Y10026034D01*
X12949632Y10011522D01*
Y10004267D01*
X12942377Y9989755D01*
X12920610Y9982500D01*
X12898843D01*
X12877077Y9989755D01*
X12869821Y10004267D01*
X12981557Y10134867D02*
Y9982500D01*
Y10134867D02*
X13046858D01*
X13068625Y10127612D01*
X13075880Y10120356D01*
X13083136Y10105845D01*
Y10091334D01*
X13075880Y10076823D01*
X13068625Y10069567D01*
X13046858Y10062311D01*
X12981557D02*
X13046858D01*
X13068625Y10055056D01*
X13075880Y10047800D01*
X13083136Y10033289D01*
Y10011522D01*
X13075880Y9997011D01*
X13068625Y9989755D01*
X13046858Y9982500D01*
X12981557D01*
X13131747Y10134867D02*
X13139005Y10127612D01*
X13146259Y10134867D01*
X13139005Y10142123D01*
X13131747Y10134867D01*
X13139005Y10084078D02*
Y9982500D01*
X13194872Y10134867D02*
Y10011522D01*
X13202127Y9989755D01*
X13216640Y9982500D01*
X13231149D01*
X13173105Y10084078D02*
X13223894D01*
X13372633Y10134867D02*
Y9982500D01*
Y10134867D02*
X13437933D01*
X13459702Y10127612D01*
X13466956Y10120356D01*
X13474213Y10105845D01*
Y10091334D01*
X13466956Y10076823D01*
X13459702Y10069567D01*
X13437933Y10062311D01*
X13372633D01*
X13423422D02*
X13474213Y9982500D01*
X13508313Y10105845D02*
X13522824Y10113101D01*
X13544591Y10134867D01*
Y9982500D01*
D73*
X11552900Y10440251D02*
Y10287900D01*
X11603683Y10338683D01*
X11654467Y10287900D01*
Y10440251D01*
X11705251Y10287900D02*
Y10440251D01*
X11781426D01*
X11806818Y10414859D01*
Y10364075D01*
X11781426Y10338683D01*
X11705251D01*
X8800400Y5000251D02*
Y4847900D01*
X8876575D01*
X8901967Y4873292D01*
Y4898683D01*
X8876575Y4924075D01*
X8800400D01*
X8876575D01*
X8901967Y4949467D01*
Y4974859D01*
X8876575Y5000251D01*
X8800400D01*
X9028926D02*
X8978143D01*
X8952751Y4974859D01*
Y4873292D01*
X8978143Y4847900D01*
X9028926D01*
X9054318Y4873292D01*
Y4974859D01*
X9028926Y5000251D01*
X9181277D02*
X9130493D01*
X9105101Y4974859D01*
Y4873292D01*
X9130493Y4847900D01*
X9181277D01*
X9206669Y4873292D01*
Y4974859D01*
X9181277Y5000251D01*
X9257452D02*
X9359019D01*
X9308236D01*
Y4847900D01*
X5994467Y9524859D02*
X5969075Y9550251D01*
X5918292D01*
X5892900Y9524859D01*
Y9499467D01*
X5918292Y9474075D01*
X5969075D01*
X5994467Y9448683D01*
Y9423292D01*
X5969075Y9397900D01*
X5918292D01*
X5892900Y9423292D01*
X6045251Y9397900D02*
Y9550251D01*
X6121426D01*
X6146818Y9524859D01*
Y9474075D01*
X6121426Y9448683D01*
X6045251D01*
X6197602Y9550251D02*
X6248385D01*
X6222993D01*
Y9397900D01*
X6197602D01*
X6248385D01*
X6001967Y5574859D02*
X5976575Y5600251D01*
X5925792D01*
X5900400Y5574859D01*
Y5473292D01*
X5925792Y5447900D01*
X5976575D01*
X6001967Y5473292D01*
Y5524075D01*
X5951183D01*
X6052751Y5447900D02*
Y5600251D01*
X6128926D01*
X6154318Y5574859D01*
Y5524075D01*
X6128926Y5498683D01*
X6052751D01*
X6205101Y5600251D02*
X6255885D01*
X6230493D01*
Y5447900D01*
X6205101D01*
X6255885D01*
X6408236Y5600251D02*
X6357452D01*
X6332060Y5574859D01*
Y5473292D01*
X6357452Y5447900D01*
X6408236D01*
X6433627Y5473292D01*
Y5574859D01*
X6408236Y5600251D01*
X11825400Y4812900D02*
Y4937860D01*
X11887880D01*
X11908706Y4917033D01*
Y4875380D01*
X11887880Y4854553D01*
X11825400D01*
X11867053D02*
X11908706Y4812900D01*
X12033666Y4937860D02*
X11950360D01*
Y4812900D01*
X12033666D01*
X11950360Y4875380D02*
X11992013D01*
X12158626Y4917033D02*
X12137799Y4937860D01*
X12096146D01*
X12075319Y4917033D01*
Y4896206D01*
X12096146Y4875380D01*
X12137799D01*
X12158626Y4854553D01*
Y4833726D01*
X12137799Y4812900D01*
X12096146D01*
X12075319Y4833726D01*
X12283585Y4937860D02*
X12200279D01*
Y4812900D01*
X12283585D01*
X12200279Y4875380D02*
X12241932D01*
X12325238Y4937860D02*
X12408545D01*
X12366892D01*
Y4812900D01*
X7560400Y4657751D02*
Y4505400D01*
X7611183Y4556183D01*
X7661967Y4505400D01*
Y4657751D01*
X7712751Y4505400D02*
Y4657751D01*
X7788926D01*
X7814318Y4632359D01*
Y4581575D01*
X7788926Y4556183D01*
X7712751D01*
D74*
X8392430Y8575005D02*
D03*
%TF.MD5,e7063d2ef4972e3890733213fc535978*%
M02*
