%TF.GenerationSoftware,Altium Limited,Altium Designer,25.3.3 (18)*%
G04 Layer_Physical_Order=2*
G04 Layer_Color=36540*
%FSLAX45Y45*%
%MOMM*%
%TF.SameCoordinates,C60B5D50-6102-498E-8A7F-52ABF2EF578F*%
%TF.FilePolarity,Positive*%
%TF.FileFunction,Copper,L2,Inr,Signal*%
%TF.Part,Single*%
G01*
G75*
%TA.AperFunction,ComponentPad*%
%ADD58C,0.90000*%
G04:AMPARAMS|DCode=59|XSize=1.25mm|YSize=0.6mm|CornerRadius=0.3mm|HoleSize=0mm|Usage=FLASHONLY|Rotation=90.000|XOffset=0mm|YOffset=0mm|HoleType=Round|Shape=RoundedRectangle|*
%AMROUNDEDRECTD59*
21,1,1.25000,0.00000,0,0,90.0*
21,1,0.65000,0.60000,0,0,90.0*
1,1,0.60000,0.00000,0.32500*
1,1,0.60000,0.00000,-0.32500*
1,1,0.60000,0.00000,-0.32500*
1,1,0.60000,0.00000,0.32500*
%
%ADD59ROUNDEDRECTD59*%
G04:AMPARAMS|DCode=60|XSize=2.6mm|YSize=1.3mm|CornerRadius=0.65mm|HoleSize=0mm|Usage=FLASHONLY|Rotation=180.000|XOffset=0mm|YOffset=0mm|HoleType=Round|Shape=RoundedRectangle|*
%AMROUNDEDRECTD60*
21,1,2.60000,0.00000,0,0,180.0*
21,1,1.30000,1.30000,0,0,180.0*
1,1,1.30000,-0.65000,0.00000*
1,1,1.30000,0.65000,0.00000*
1,1,1.30000,0.65000,0.00000*
1,1,1.30000,-0.65000,0.00000*
%
%ADD60ROUNDEDRECTD60*%
G04:AMPARAMS|DCode=61|XSize=0.6mm|YSize=1.9mm|CornerRadius=0.3mm|HoleSize=0mm|Usage=FLASHONLY|Rotation=90.000|XOffset=0mm|YOffset=0mm|HoleType=Round|Shape=RoundedRectangle|*
%AMROUNDEDRECTD61*
21,1,0.60000,1.30000,0,0,90.0*
21,1,0.00000,1.90000,0,0,90.0*
1,1,0.60000,0.65000,0.00000*
1,1,0.60000,0.65000,0.00000*
1,1,0.60000,-0.65000,0.00000*
1,1,0.60000,-0.65000,0.00000*
%
%ADD61ROUNDEDRECTD61*%
%ADD62C,0.60000*%
G04:AMPARAMS|DCode=63|XSize=0.85mm|YSize=0.5mm|CornerRadius=0.25mm|HoleSize=0mm|Usage=FLASHONLY|Rotation=270.000|XOffset=0mm|YOffset=0mm|HoleType=Round|Shape=RoundedRectangle|*
%AMROUNDEDRECTD63*
21,1,0.85000,0.00000,0,0,270.0*
21,1,0.35000,0.50000,0,0,270.0*
1,1,0.50000,0.00000,-0.17500*
1,1,0.50000,0.00000,0.17500*
1,1,0.50000,0.00000,0.17500*
1,1,0.50000,0.00000,-0.17500*
%
%ADD63ROUNDEDRECTD63*%
%ADD64C,1.54060*%
%ADD65R,1.54060X1.54060*%
%TA.AperFunction,ViaPad*%
%ADD66C,0.60000*%
%ADD67C,0.50000*%
G36*
X14610001Y10680000D02*
X14725000Y10565000D01*
Y9075000D01*
X14387500Y8737500D01*
Y8440451D01*
X14382243Y8435087D01*
X14362100Y8423445D01*
X14361604Y8423543D01*
X13742604D01*
X13734801Y8421991D01*
X13728185Y8417571D01*
X13723764Y8410955D01*
X13722212Y8403152D01*
Y6603152D01*
X13723764Y6595348D01*
X13728185Y6588732D01*
X13734801Y6584312D01*
X13742604Y6582760D01*
X14361604D01*
X14362100Y6582859D01*
X14382243Y6571217D01*
X14387500Y6565853D01*
Y6275000D01*
X14725000Y5937500D01*
Y4400000D01*
X14600000Y4275000D01*
X5950000D01*
X5835000Y4387500D01*
Y7058409D01*
X5836732Y7059061D01*
X5864546Y7042389D01*
X5864688Y7041311D01*
X5873253Y7020634D01*
X5886877Y7002878D01*
X5904633Y6989253D01*
X5925310Y6980688D01*
X5947500Y6977767D01*
X6077500D01*
X6099690Y6980688D01*
X6120367Y6989253D01*
X6138123Y7002878D01*
X6151747Y7020634D01*
X6160312Y7041311D01*
X6163234Y7063500D01*
X6162900Y7066031D01*
X6179648Y7085128D01*
X6285700D01*
X6299942Y7075611D01*
X6317500Y7072119D01*
X6335058Y7075611D01*
X6349300Y7085128D01*
X6357512D01*
X6365316Y7086680D01*
X6371931Y7091100D01*
X6376352Y7097716D01*
X6401520Y7094051D01*
Y7063500D01*
X6405401Y7043991D01*
X6416452Y7027452D01*
X6432991Y7016401D01*
X6452500Y7012520D01*
X6582500D01*
X6602009Y7016401D01*
X6618548Y7027452D01*
X6629599Y7043991D01*
X6633479Y7063500D01*
X6629599Y7083009D01*
X6618548Y7099548D01*
X6602009Y7110599D01*
X6582500Y7114480D01*
X6503479D01*
Y7128500D01*
X6499599Y7148009D01*
X6488548Y7164548D01*
X6472009Y7175599D01*
X6452500Y7179480D01*
X6432991Y7175599D01*
X6416452Y7164548D01*
X6405401Y7148009D01*
X6403304Y7137467D01*
X6377904Y7139969D01*
Y7851033D01*
X6403304Y7853535D01*
X6405401Y7842991D01*
X6416452Y7826452D01*
X6432991Y7815401D01*
X6452500Y7811521D01*
X6472009Y7815401D01*
X6488548Y7826452D01*
X6499599Y7842991D01*
X6503480Y7862500D01*
Y7876520D01*
X6582500D01*
X6602009Y7880401D01*
X6618548Y7891452D01*
X6629599Y7907991D01*
X6633479Y7927500D01*
X6629599Y7947009D01*
X6618548Y7963548D01*
X6602009Y7974599D01*
X6582500Y7978480D01*
X6452501D01*
X6452500Y7978480D01*
X6432991Y7974599D01*
X6416452Y7963548D01*
X6405401Y7947009D01*
X6401521Y7927500D01*
Y7896987D01*
X6376352Y7893323D01*
X6371931Y7899939D01*
X6365316Y7904359D01*
X6357512Y7905911D01*
X6179653D01*
X6162905Y7925008D01*
X6163234Y7927500D01*
X6160312Y7949689D01*
X6151747Y7970367D01*
X6138123Y7988123D01*
X6120367Y8001747D01*
X6099690Y8010312D01*
X6077500Y8013233D01*
X5947500D01*
X5925310Y8010312D01*
X5904633Y8001747D01*
X5886877Y7988123D01*
X5873253Y7970367D01*
X5864688Y7949689D01*
X5864551Y7948653D01*
X5836737Y7931982D01*
X5835000Y7932636D01*
Y10560000D01*
X5950000Y10682500D01*
X14610001Y10680000D01*
D02*
G37*
%LPC*%
G36*
X11221058Y10440000D02*
X11203943D01*
X11187411Y10435570D01*
X11172590Y10427013D01*
X11160487Y10414911D01*
X11151930Y10400089D01*
X11147500Y10383557D01*
Y10366442D01*
X11151930Y10349911D01*
X11160487Y10335089D01*
X11172590Y10322987D01*
X11187411Y10314430D01*
X11203943Y10310000D01*
X11221058D01*
X11237589Y10314430D01*
X11252411Y10322987D01*
X11264513Y10335089D01*
X11273070Y10349911D01*
X11277500Y10366442D01*
Y10383557D01*
X11273070Y10400089D01*
X11264513Y10414911D01*
X11252411Y10427013D01*
X11237589Y10435570D01*
X11221058Y10440000D01*
D02*
G37*
G36*
X10821057D02*
X10803942D01*
X10787411Y10435570D01*
X10772589Y10427013D01*
X10760487Y10414911D01*
X10751930Y10400089D01*
X10747500Y10383557D01*
Y10366442D01*
X10751930Y10349911D01*
X10760487Y10335089D01*
X10772589Y10322987D01*
X10787411Y10314430D01*
X10803942Y10310000D01*
X10821057D01*
X10837589Y10314430D01*
X10852411Y10322987D01*
X10864513Y10335089D01*
X10873070Y10349911D01*
X10877500Y10366442D01*
Y10383557D01*
X10873070Y10400089D01*
X10864513Y10414911D01*
X10852411Y10427013D01*
X10837589Y10435570D01*
X10821057Y10440000D01*
D02*
G37*
G36*
X10609946Y9827500D02*
X10590054D01*
X10571677Y9819888D01*
X10557612Y9805823D01*
X10550000Y9787445D01*
Y9767554D01*
X10557612Y9749177D01*
X10571677Y9735112D01*
X10590054Y9727500D01*
X10609946D01*
X10628323Y9735112D01*
X10642388Y9749177D01*
X10650000Y9767554D01*
Y9787445D01*
X10642388Y9805823D01*
X10628323Y9819888D01*
X10609946Y9827500D01*
D02*
G37*
G36*
X10764946Y9825000D02*
X10745054D01*
X10726677Y9817388D01*
X10712612Y9803323D01*
X10705000Y9784946D01*
Y9765054D01*
X10712612Y9746677D01*
X10726677Y9732612D01*
X10745054Y9725000D01*
X10764946D01*
X10783323Y9732612D01*
X10797388Y9746677D01*
X10805000Y9765054D01*
Y9784946D01*
X10797388Y9803323D01*
X10783323Y9817388D01*
X10764946Y9825000D01*
D02*
G37*
G36*
X8502446Y9487362D02*
X8482554D01*
X8464177Y9479750D01*
X8450112Y9465685D01*
X8442500Y9447307D01*
Y9427416D01*
X8450112Y9409039D01*
X8464177Y9394974D01*
X8482554Y9387362D01*
X8502446D01*
X8520823Y9394974D01*
X8534888Y9409039D01*
X8542500Y9427416D01*
Y9447307D01*
X8534888Y9465685D01*
X8520823Y9479750D01*
X8502446Y9487362D01*
D02*
G37*
G36*
X8679946Y9485049D02*
X8660054D01*
X8641677Y9477437D01*
X8627612Y9463372D01*
X8620000Y9444995D01*
Y9425103D01*
X8627612Y9406726D01*
X8641677Y9392661D01*
X8660054Y9385049D01*
X8679946D01*
X8698323Y9392661D01*
X8712388Y9406726D01*
X8720000Y9425103D01*
Y9444995D01*
X8712388Y9463372D01*
X8698323Y9477437D01*
X8679946Y9485049D01*
D02*
G37*
G36*
X9977369Y9202500D02*
X9957478D01*
X9939101Y9194888D01*
X9925036Y9180823D01*
X9917424Y9162446D01*
Y9142554D01*
X9925036Y9124177D01*
X9939101Y9110112D01*
X9957478Y9102500D01*
X9977369D01*
X9995746Y9110112D01*
X10009812Y9124177D01*
X10017423Y9142554D01*
Y9162446D01*
X10009812Y9180823D01*
X9995746Y9194888D01*
X9977369Y9202500D01*
D02*
G37*
G36*
X9977446Y9047500D02*
X9957554D01*
X9939177Y9039888D01*
X9925112Y9025823D01*
X9917500Y9007446D01*
Y8987554D01*
X9925112Y8969177D01*
X9939177Y8955112D01*
X9957554Y8947500D01*
X9977446D01*
X9995823Y8955112D01*
X10009888Y8969177D01*
X10017500Y8987554D01*
Y9007446D01*
X10009888Y9025823D01*
X9995823Y9039888D01*
X9977446Y9047500D01*
D02*
G37*
G36*
X6972446Y8910000D02*
X6952554D01*
X6934177Y8902388D01*
X6922752Y8890963D01*
X6912092Y8888803D01*
X6893284Y8889927D01*
X6883323Y8899888D01*
X6864946Y8907500D01*
X6845054D01*
X6826677Y8899888D01*
X6812612Y8885823D01*
X6805000Y8867446D01*
Y8847554D01*
X6812612Y8829177D01*
X6826677Y8815112D01*
X6845054Y8807500D01*
X6864946D01*
X6883323Y8815112D01*
X6894748Y8826537D01*
X6905408Y8828697D01*
X6924216Y8827573D01*
X6934177Y8817612D01*
X6952554Y8810000D01*
X6972446D01*
X6990823Y8817612D01*
X6995480Y8822270D01*
X7014211Y8827522D01*
X7027843Y8821446D01*
X7034177Y8815112D01*
X7052554Y8807500D01*
X7072446D01*
X7090823Y8815112D01*
X7104888Y8829177D01*
X7112500Y8847554D01*
Y8867446D01*
X7104888Y8885823D01*
X7090823Y8899888D01*
X7072446Y8907500D01*
X7052554D01*
X7034177Y8899888D01*
X7029520Y8895230D01*
X7010789Y8889978D01*
X6997157Y8896054D01*
X6990823Y8902388D01*
X6972446Y8910000D01*
D02*
G37*
G36*
X9699946Y8892500D02*
X9680054D01*
X9661677Y8884888D01*
X9647612Y8870823D01*
X9628291Y8856292D01*
X9617642Y8859789D01*
X9609131Y8863315D01*
X9589240D01*
X9570863Y8855703D01*
X9556797Y8841637D01*
X9549186Y8823260D01*
Y8813374D01*
X9544621Y8810324D01*
X9524730D01*
X9506353Y8802712D01*
X9492288Y8788647D01*
X9484676Y8770270D01*
Y8765098D01*
X9477286Y8760160D01*
X9457395D01*
X9439018Y8752548D01*
X9424952Y8738482D01*
X9417341Y8720105D01*
Y8700214D01*
X9424952Y8681837D01*
X9439018Y8667772D01*
X9457395Y8660160D01*
X9477286D01*
X9495663Y8667772D01*
X9509729Y8681837D01*
X9517340Y8700214D01*
Y8705386D01*
X9524731Y8710324D01*
X9544621D01*
X9562999Y8717936D01*
X9577064Y8732002D01*
X9584676Y8750379D01*
Y8760265D01*
X9589240Y8763315D01*
X9609131D01*
X9627508Y8770927D01*
X9641573Y8784992D01*
X9660894Y8799523D01*
X9671544Y8796025D01*
X9680054Y8792500D01*
X9699946D01*
X9718323Y8800112D01*
X9732388Y8814177D01*
X9740000Y8832554D01*
Y8852446D01*
X9732388Y8870823D01*
X9718323Y8884888D01*
X9699946Y8892500D01*
D02*
G37*
G36*
X9007446Y8697500D02*
X8987554D01*
X8969177Y8689888D01*
X8955112Y8675823D01*
X8947500Y8657446D01*
Y8637554D01*
X8955112Y8619177D01*
X8969177Y8605112D01*
X8987554Y8597500D01*
X9007446D01*
X9025823Y8605112D01*
X9039888Y8619177D01*
X9047500Y8637554D01*
Y8657446D01*
X9039888Y8675823D01*
X9025823Y8689888D01*
X9007446Y8697500D01*
D02*
G37*
G36*
X10258407Y8603462D02*
X10238516D01*
X10220139Y8595850D01*
X10206074Y8581784D01*
X10198462Y8563407D01*
Y8543516D01*
X10206074Y8525139D01*
X10206158Y8525055D01*
X10217512Y8507466D01*
X10206158Y8491868D01*
X10205112Y8490823D01*
X10197500Y8472446D01*
Y8452554D01*
X10205112Y8434177D01*
X10202612Y8405822D01*
X10195000Y8387446D01*
Y8367554D01*
X10202612Y8349177D01*
X10216677Y8335112D01*
X10235054Y8327500D01*
X10254946D01*
X10273323Y8335112D01*
X10287388Y8349177D01*
X10295000Y8367554D01*
Y8387446D01*
X10287388Y8405822D01*
X10289888Y8434177D01*
X10297500Y8452554D01*
Y8472446D01*
X10289888Y8490823D01*
X10289804Y8490907D01*
X10278449Y8508496D01*
X10289804Y8524093D01*
X10290850Y8525139D01*
X10298462Y8543516D01*
Y8563407D01*
X10290850Y8581784D01*
X10276785Y8595850D01*
X10258407Y8603462D01*
D02*
G37*
G36*
X8989946Y8395000D02*
X8970054D01*
X8951677Y8387388D01*
X8937612Y8373323D01*
X8930000Y8354946D01*
Y8335054D01*
X8937612Y8316677D01*
X8951677Y8302612D01*
X8970054Y8295000D01*
X8989946D01*
X9008323Y8302612D01*
X9022388Y8316677D01*
X9030000Y8335054D01*
Y8354946D01*
X9022388Y8373323D01*
X9008323Y8387388D01*
X8989946Y8395000D01*
D02*
G37*
G36*
X9374946Y8340000D02*
X9355054D01*
X9336677Y8332388D01*
X9322612Y8318323D01*
X9315000Y8299946D01*
Y8280054D01*
X9322612Y8261677D01*
X9336677Y8247612D01*
X9355054Y8240000D01*
X9374946D01*
X9393323Y8247612D01*
X9407388Y8261677D01*
X9415000Y8280054D01*
Y8299946D01*
X9407388Y8318323D01*
X9393323Y8332388D01*
X9374946Y8340000D01*
D02*
G37*
G36*
X8852446Y8257500D02*
X8832554D01*
X8814177Y8249888D01*
X8800112Y8235823D01*
X8792500Y8217446D01*
Y8197554D01*
X8800112Y8179177D01*
X8814177Y8165112D01*
X8832554Y8157500D01*
X8852446D01*
X8870823Y8165112D01*
X8884888Y8179177D01*
X8892500Y8197554D01*
Y8217446D01*
X8884888Y8235823D01*
X8870823Y8249888D01*
X8852446Y8257500D01*
D02*
G37*
G36*
X8837446Y8056992D02*
X8817554D01*
X8799177Y8049380D01*
X8785112Y8035314D01*
X8777500Y8016937D01*
Y7997046D01*
X8785112Y7978669D01*
X8799177Y7964604D01*
X8817554Y7956992D01*
X8837446D01*
X8855823Y7964604D01*
X8869888Y7978669D01*
X8877500Y7997046D01*
Y8016937D01*
X8869888Y8035314D01*
X8855823Y8049380D01*
X8837446Y8056992D01*
D02*
G37*
G36*
X7519946Y7805000D02*
X7500054D01*
X7481677Y7797388D01*
X7467612Y7783323D01*
X7460000Y7764946D01*
Y7745054D01*
X7467612Y7726677D01*
X7481677Y7712612D01*
X7500054Y7705000D01*
X7519946D01*
X7538323Y7712612D01*
X7552388Y7726677D01*
X7560000Y7745054D01*
Y7764946D01*
X7552388Y7783323D01*
X7538323Y7797388D01*
X7519946Y7805000D01*
D02*
G37*
G36*
X7520749Y7621696D02*
X7500858D01*
X7482481Y7614084D01*
X7468416Y7600019D01*
X7460804Y7581642D01*
Y7561751D01*
X7468416Y7543374D01*
X7482481Y7529308D01*
X7500858Y7521696D01*
X7520749D01*
X7539126Y7529308D01*
X7553192Y7543374D01*
X7560804Y7561751D01*
Y7581642D01*
X7553192Y7600019D01*
X7539126Y7614084D01*
X7520749Y7621696D01*
D02*
G37*
G36*
X11174946Y7090000D02*
X11155054D01*
X11136677Y7082388D01*
X11122612Y7068323D01*
X11115000Y7049946D01*
Y7030054D01*
X11122612Y7011677D01*
X11136677Y6997612D01*
X11155054Y6990000D01*
X11174946D01*
X11193323Y6997612D01*
X11207388Y7011677D01*
X11215000Y7030054D01*
Y7049946D01*
X11207388Y7068323D01*
X11193323Y7082388D01*
X11174946Y7090000D01*
D02*
G37*
G36*
X11342446Y7085000D02*
X11322554D01*
X11304177Y7077388D01*
X11290112Y7063323D01*
X11282500Y7044946D01*
Y7025054D01*
X11290112Y7006677D01*
X11304177Y6992612D01*
X11322554Y6985000D01*
X11342446D01*
X11360823Y6992612D01*
X11374888Y7006677D01*
X11382500Y7025054D01*
Y7044946D01*
X11374888Y7063323D01*
X11360823Y7077388D01*
X11342446Y7085000D01*
D02*
G37*
G36*
X8524946Y7035000D02*
X8505054D01*
X8486677Y7027388D01*
X8472612Y7013323D01*
X8465000Y6994946D01*
Y6975054D01*
X8472612Y6956677D01*
X8486677Y6942612D01*
X8505054Y6935000D01*
X8524946D01*
X8543323Y6942612D01*
X8557388Y6956677D01*
X8565000Y6975054D01*
Y6994946D01*
X8557388Y7013323D01*
X8543323Y7027388D01*
X8524946Y7035000D01*
D02*
G37*
G36*
X8389946Y6967500D02*
X8370054D01*
X8351677Y6959888D01*
X8337612Y6945823D01*
X8330000Y6927446D01*
Y6907554D01*
X8337612Y6889177D01*
X8351677Y6875112D01*
X8370054Y6867500D01*
X8389946D01*
X8408323Y6875112D01*
X8422388Y6889177D01*
X8430000Y6907554D01*
Y6927446D01*
X8422388Y6945823D01*
X8408323Y6959888D01*
X8389946Y6967500D01*
D02*
G37*
G36*
X11637446Y6902500D02*
X11617554D01*
X11599177Y6894888D01*
X11585112Y6880823D01*
X11577500Y6862446D01*
Y6842554D01*
X11585112Y6824177D01*
X11599177Y6810112D01*
X11617554Y6802500D01*
X11637446D01*
X11655823Y6810112D01*
X11669888Y6824177D01*
X11677500Y6842554D01*
Y6862446D01*
X11669888Y6880823D01*
X11655823Y6894888D01*
X11637446Y6902500D01*
D02*
G37*
G36*
X8304946Y6815000D02*
X8285054D01*
X8266677Y6807388D01*
X8252612Y6793323D01*
X8245000Y6774946D01*
Y6755054D01*
X8252612Y6736677D01*
X8266677Y6722612D01*
X8285054Y6715000D01*
X8304946D01*
X8323323Y6722612D01*
X8337388Y6736677D01*
X8345000Y6755054D01*
Y6774946D01*
X8337388Y6793323D01*
X8323323Y6807388D01*
X8304946Y6815000D01*
D02*
G37*
G36*
X8519946Y6750000D02*
X8500054D01*
X8481677Y6742388D01*
X8467612Y6728323D01*
X8460000Y6709946D01*
Y6690054D01*
X8467612Y6671677D01*
X8481677Y6657612D01*
X8500054Y6650000D01*
X8519946D01*
X8538323Y6657612D01*
X8552388Y6671677D01*
X8560000Y6690054D01*
Y6709946D01*
X8552388Y6728323D01*
X8538323Y6742388D01*
X8519946Y6750000D01*
D02*
G37*
G36*
X11474946Y6737500D02*
X11455054D01*
X11436677Y6729888D01*
X11422612Y6715823D01*
X11415000Y6697446D01*
Y6677554D01*
X11422612Y6659177D01*
X11436677Y6645112D01*
X11455054Y6637500D01*
X11474946D01*
X11493323Y6645112D01*
X11507388Y6659177D01*
X11515000Y6677554D01*
Y6697446D01*
X11507388Y6715823D01*
X11493323Y6729888D01*
X11474946Y6737500D01*
D02*
G37*
G36*
X6767446Y6715000D02*
X6747554D01*
X6729177Y6707388D01*
X6715112Y6693323D01*
X6707500Y6674946D01*
Y6655054D01*
X6715112Y6636677D01*
X6729177Y6622612D01*
X6736036Y6619771D01*
X6736771Y6607773D01*
X6733510Y6593325D01*
X6719177Y6587388D01*
X6705112Y6573323D01*
X6697500Y6554946D01*
Y6535054D01*
X6705112Y6516677D01*
X6719177Y6502612D01*
X6737554Y6495000D01*
X6755000Y6484946D01*
X6755000Y6465054D01*
X6762612Y6446677D01*
X6776677Y6432612D01*
X6792337Y6426126D01*
X6795054Y6425000D01*
X6810000Y6407445D01*
Y6387554D01*
X6817612Y6369177D01*
X6831677Y6355112D01*
X6850054Y6347500D01*
X6869946D01*
X6888323Y6355112D01*
X6902388Y6369177D01*
X6910000Y6387554D01*
Y6407446D01*
X6902388Y6425823D01*
X6888323Y6439888D01*
X6872663Y6446374D01*
X6869946Y6447500D01*
X6855000Y6465055D01*
Y6484946D01*
X6847388Y6503323D01*
X6833323Y6517388D01*
X6814946Y6525000D01*
X6797500Y6535054D01*
X6797500Y6554946D01*
X6789888Y6573323D01*
X6775823Y6587388D01*
X6768964Y6590229D01*
X6768229Y6602227D01*
X6771491Y6616675D01*
X6785823Y6622612D01*
X6799888Y6636677D01*
X6807500Y6655054D01*
Y6674946D01*
X6799888Y6693323D01*
X6785823Y6707388D01*
X6767446Y6715000D01*
D02*
G37*
G36*
X9254946Y6390000D02*
X9235054D01*
X9216677Y6382388D01*
X9202612Y6368323D01*
X9195000Y6349946D01*
Y6330054D01*
X9202612Y6311677D01*
X9216677Y6297612D01*
X9235054Y6290000D01*
X9254946D01*
X9273323Y6297612D01*
X9287388Y6311677D01*
X9295000Y6330054D01*
Y6349946D01*
X9287388Y6368323D01*
X9273323Y6382388D01*
X9254946Y6390000D01*
D02*
G37*
G36*
X9357446Y6292500D02*
X9337554D01*
X9319177Y6284888D01*
X9305112Y6270823D01*
X9297500Y6252446D01*
Y6232554D01*
X9305112Y6214177D01*
X9319177Y6200112D01*
X9337554Y6192500D01*
X9357446D01*
X9375823Y6200112D01*
X9389888Y6214177D01*
X9397500Y6232554D01*
Y6252446D01*
X9389888Y6270823D01*
X9375823Y6284888D01*
X9357446Y6292500D01*
D02*
G37*
G36*
X7412446Y6147500D02*
X7392554D01*
X7374177Y6139888D01*
X7360112Y6125823D01*
X7352500Y6107446D01*
Y6087554D01*
X7360112Y6069177D01*
X7374177Y6055112D01*
X7392554Y6047500D01*
X7412446D01*
X7430823Y6055112D01*
X7444888Y6069177D01*
X7452500Y6087554D01*
Y6107446D01*
X7444888Y6125823D01*
X7430823Y6139888D01*
X7412446Y6147500D01*
D02*
G37*
G36*
X7527446Y5945000D02*
X7507554D01*
X7489177Y5937388D01*
X7475112Y5923323D01*
X7467500Y5904946D01*
Y5885054D01*
X7475112Y5866677D01*
X7489177Y5852612D01*
X7507554Y5845000D01*
X7527446D01*
X7545823Y5852612D01*
X7559888Y5866677D01*
X7567500Y5885054D01*
Y5904946D01*
X7559888Y5923323D01*
X7545823Y5937388D01*
X7527446Y5945000D01*
D02*
G37*
G36*
X8112446Y5567500D02*
X8092554D01*
X8074177Y5559888D01*
X8060112Y5545823D01*
X8052500Y5527446D01*
Y5507554D01*
X8060112Y5489177D01*
X8074177Y5475112D01*
X8092554Y5467500D01*
X8112446D01*
X8130823Y5475112D01*
X8144888Y5489177D01*
X8152500Y5507554D01*
Y5527446D01*
X8144888Y5545823D01*
X8130823Y5559888D01*
X8112446Y5567500D01*
D02*
G37*
G36*
X8009946Y5460000D02*
X7990054D01*
X7971677Y5452388D01*
X7957612Y5438323D01*
X7950000Y5419946D01*
Y5400054D01*
X7957612Y5381677D01*
X7971677Y5367612D01*
X7990054Y5360000D01*
X8009946D01*
X8028323Y5367612D01*
X8042388Y5381677D01*
X8050000Y5400054D01*
Y5419946D01*
X8042388Y5438323D01*
X8028323Y5452388D01*
X8009946Y5460000D01*
D02*
G37*
G36*
X8919340Y5552030D02*
X8725280D01*
Y5357970D01*
X8919340D01*
Y5552030D01*
D02*
G37*
G36*
X11936840Y5504530D02*
X11742780D01*
Y5310470D01*
X11936840D01*
Y5504530D01*
D02*
G37*
G36*
X8563558Y4647500D02*
X8546443D01*
X8529911Y4643070D01*
X8515089Y4634513D01*
X8502987Y4622411D01*
X8494430Y4607589D01*
X8490000Y4591058D01*
Y4573943D01*
X8494430Y4557411D01*
X8502987Y4542589D01*
X8515089Y4530487D01*
X8529911Y4521930D01*
X8546443Y4517500D01*
X8563558D01*
X8580089Y4521930D01*
X8594911Y4530487D01*
X8607013Y4542589D01*
X8615570Y4557411D01*
X8620000Y4573943D01*
Y4591058D01*
X8615570Y4607589D01*
X8607013Y4622411D01*
X8594911Y4634513D01*
X8580089Y4643070D01*
X8563558Y4647500D01*
D02*
G37*
G36*
X8163557D02*
X8146442D01*
X8129911Y4643070D01*
X8115089Y4634513D01*
X8102987Y4622411D01*
X8094430Y4607589D01*
X8090000Y4591058D01*
Y4573943D01*
X8094430Y4557411D01*
X8102987Y4542589D01*
X8115089Y4530487D01*
X8129911Y4521930D01*
X8146442Y4517500D01*
X8163557D01*
X8180089Y4521930D01*
X8194911Y4530487D01*
X8207013Y4542589D01*
X8215570Y4557411D01*
X8220000Y4573943D01*
Y4591058D01*
X8215570Y4607589D01*
X8207013Y4622411D01*
X8194911Y4634513D01*
X8180089Y4643070D01*
X8163557Y4647500D01*
D02*
G37*
%LPD*%
D58*
X10812500Y10375000D02*
D03*
X11212500D02*
D03*
X8555000Y4582500D02*
D03*
X8155000D02*
D03*
D59*
X6452500Y7895000D02*
D03*
X6452500Y7096000D02*
D03*
D60*
X6012500Y7063500D02*
D03*
Y7927500D02*
D03*
D61*
X6517500D02*
D03*
Y7063500D02*
D03*
D62*
X6317500Y7855500D02*
D03*
D63*
Y7135500D02*
D03*
D64*
X12340190Y5407500D02*
D03*
X9322690Y5455000D02*
D03*
D65*
X11839810Y5407500D02*
D03*
X8822310Y5455000D02*
D03*
D66*
X8640000Y4977500D02*
D03*
X8602500Y4897500D02*
D03*
X8827500Y8006992D02*
D03*
X7047500Y7990000D02*
D03*
X13612500Y6467500D02*
D03*
X11677500Y8067500D02*
D03*
X7402500Y6097500D02*
D03*
X7517500Y5895000D02*
D03*
X8000000Y5410000D02*
D03*
X8102500Y5517500D02*
D03*
X6525000Y6057500D02*
D03*
X7510804Y7571696D02*
D03*
X7510000Y7755000D02*
D03*
X11340000Y8767500D02*
D03*
X11347500Y9192500D02*
D03*
X13637500Y9025000D02*
D03*
X6860000Y6397500D02*
D03*
X6805000Y6475000D02*
D03*
X6747500Y6545000D02*
D03*
X6757500Y6665000D02*
D03*
X8101317Y6266183D02*
D03*
X7930000Y5597500D02*
D03*
X9347500Y6242500D02*
D03*
X9245000Y6340000D02*
D03*
X11465000Y6687500D02*
D03*
X11627500Y6852500D02*
D03*
X8030000Y8032500D02*
D03*
X8607500Y8205000D02*
D03*
X8326716Y8108284D02*
D03*
X8383284Y8051716D02*
D03*
X8515000Y6985000D02*
D03*
X8510000Y6700000D02*
D03*
X8730000Y7920000D02*
D03*
X9220000Y6822500D02*
D03*
X8910000Y7302500D02*
D03*
X8965000Y6917500D02*
D03*
X8380000D02*
D03*
X8295000Y6765000D02*
D03*
X8195000Y6830000D02*
D03*
X7062500Y8857500D02*
D03*
X6962500Y8860000D02*
D03*
X6855000Y8857500D02*
D03*
X10248462Y8553462D02*
D03*
X8392500Y8522500D02*
D03*
X7830000Y7330000D02*
D03*
X10245000Y8377500D02*
D03*
X10247500Y8462500D02*
D03*
X9690000Y8842500D02*
D03*
X9599186Y8813315D02*
D03*
X9534676Y8760324D02*
D03*
X9467340Y8710160D02*
D03*
X9365000Y8290000D02*
D03*
X8920000Y10170000D02*
D03*
X8980000Y8345000D02*
D03*
X8842500Y8207500D02*
D03*
X10755000Y9775000D02*
D03*
X10600000Y9777500D02*
D03*
X9962500Y6460000D02*
D03*
X9498297Y6711702D02*
D03*
X9585000Y5590000D02*
D03*
X7712500Y9140000D02*
D03*
X8920000Y10285000D02*
D03*
X8400000Y10167500D02*
D03*
X9347500Y10290000D02*
D03*
X9982500Y9317500D02*
D03*
X11292500Y9932500D02*
D03*
X10772500Y7665000D02*
D03*
X10247500Y8287500D02*
D03*
X10585000Y8357500D02*
D03*
X8997500Y8647500D02*
D03*
X10405962Y6860962D02*
D03*
X10527500Y6742500D02*
D03*
X12535000Y5357500D02*
D03*
X11535000Y4892500D02*
D03*
X10687500Y5247500D02*
D03*
X10245000Y5240000D02*
D03*
X7130000Y6127500D02*
D03*
X11165000Y7040000D02*
D03*
X11332500Y7035000D02*
D03*
X11065000Y6337500D02*
D03*
X6435000Y8102500D02*
D03*
X6712500Y7007500D02*
D03*
X6742500Y8052500D02*
D03*
X7180000Y7607500D02*
D03*
X9967424Y9152500D02*
D03*
X9967500Y8997500D02*
D03*
X8670000Y9435049D02*
D03*
X8492500Y9437362D02*
D03*
D67*
X7325000Y8542500D02*
D03*
X7400000D02*
D03*
X7249999D02*
D03*
%TF.MD5,e50ebd0bc130ccde6e2c2fa60430871a*%
M02*
