%TF.GenerationSoftware,Altium Limited,Altium Designer,25.3.3 (18)*%
G04 Layer_Color=16711935*
%FSLAX45Y45*%
%MOMM*%
%TF.SameCoordinates,C60B5D50-6102-498E-8A7F-52ABF2EF578F*%
%TF.FilePolarity,Negative*%
%TF.FileFunction,Soldermask,Bot*%
%TF.Part,Single*%
G01*
G75*
%TA.AperFunction,SMDPad,CuDef*%
%ADD35C,1.20655*%
%TA.AperFunction,ComponentPad*%
%ADD58C,0.90000*%
G04:AMPARAMS|DCode=59|XSize=1.25mm|YSize=0.6mm|CornerRadius=0.3mm|HoleSize=0mm|Usage=FLASHONLY|Rotation=90.000|XOffset=0mm|YOffset=0mm|HoleType=Round|Shape=RoundedRectangle|*
%AMROUNDEDRECTD59*
21,1,1.25000,0.00000,0,0,90.0*
21,1,0.65000,0.60000,0,0,90.0*
1,1,0.60000,0.00000,0.32500*
1,1,0.60000,0.00000,-0.32500*
1,1,0.60000,0.00000,-0.32500*
1,1,0.60000,0.00000,0.32500*
%
%ADD59ROUNDEDRECTD59*%
G04:AMPARAMS|DCode=60|XSize=2.6mm|YSize=1.3mm|CornerRadius=0.65mm|HoleSize=0mm|Usage=FLASHONLY|Rotation=180.000|XOffset=0mm|YOffset=0mm|HoleType=Round|Shape=RoundedRectangle|*
%AMROUNDEDRECTD60*
21,1,2.60000,0.00000,0,0,180.0*
21,1,1.30000,1.30000,0,0,180.0*
1,1,1.30000,-0.65000,0.00000*
1,1,1.30000,0.65000,0.00000*
1,1,1.30000,0.65000,0.00000*
1,1,1.30000,-0.65000,0.00000*
%
%ADD60ROUNDEDRECTD60*%
G04:AMPARAMS|DCode=61|XSize=0.6mm|YSize=1.9mm|CornerRadius=0.3mm|HoleSize=0mm|Usage=FLASHONLY|Rotation=90.000|XOffset=0mm|YOffset=0mm|HoleType=Round|Shape=RoundedRectangle|*
%AMROUNDEDRECTD61*
21,1,0.60000,1.30000,0,0,90.0*
21,1,0.00000,1.90000,0,0,90.0*
1,1,0.60000,0.65000,0.00000*
1,1,0.60000,0.65000,0.00000*
1,1,0.60000,-0.65000,0.00000*
1,1,0.60000,-0.65000,0.00000*
%
%ADD61ROUNDEDRECTD61*%
%ADD62C,0.60000*%
G04:AMPARAMS|DCode=63|XSize=0.85mm|YSize=0.5mm|CornerRadius=0.25mm|HoleSize=0mm|Usage=FLASHONLY|Rotation=270.000|XOffset=0mm|YOffset=0mm|HoleType=Round|Shape=RoundedRectangle|*
%AMROUNDEDRECTD63*
21,1,0.85000,0.00000,0,0,270.0*
21,1,0.35000,0.50000,0,0,270.0*
1,1,0.50000,0.00000,-0.17500*
1,1,0.50000,0.00000,0.17500*
1,1,0.50000,0.00000,0.17500*
1,1,0.50000,0.00000,-0.17500*
%
%ADD63ROUNDEDRECTD63*%
%ADD64C,1.54060*%
%ADD65R,1.54060X1.54060*%
%TA.AperFunction,ViaPad*%
%ADD66C,0.60000*%
%ADD91C,0.80320*%
%ADD92C,0.70320*%
G36*
X6485691Y7162261D02*
X6500796Y7149903D01*
X6510727Y7133102D01*
X6512500Y7123507D01*
X6512501Y7123507D01*
X6572500Y7123507D01*
X6584435D01*
X6606487Y7114372D01*
X6623366Y7097494D01*
X6632500Y7075442D01*
Y7051572D01*
X6623366Y7029520D01*
X6606487Y7012641D01*
X6584435Y7003507D01*
X6572500D01*
X6572500Y7003507D01*
X6462500Y7003507D01*
X6450565D01*
X6428513Y7012641D01*
X6411634Y7029520D01*
X6402500Y7051572D01*
X6402500Y7063507D01*
X6402500Y7063508D01*
X6402500Y7123507D01*
X6404273Y7133103D01*
X6414205Y7149903D01*
X6429310Y7162261D01*
X6447744Y7168668D01*
X6457501Y7168506D01*
X6467257Y7168668D01*
X6485691Y7162261D01*
D02*
G37*
G36*
X6606492Y7978355D02*
X6623370Y7961477D01*
X6632505Y7939425D01*
Y7915555D01*
X6623370Y7893503D01*
X6606492Y7876624D01*
X6584439Y7867490D01*
X6572505D01*
X6512504Y7867490D01*
X6512505Y7867489D01*
X6510732Y7857893D01*
X6500800Y7841093D01*
X6485696Y7828735D01*
X6467262Y7822327D01*
X6457505Y7822490D01*
X6457505Y7822490D01*
X6447749Y7822328D01*
X6429314Y7828735D01*
X6414209Y7841094D01*
X6404278Y7857894D01*
X6402505Y7867489D01*
Y7927489D01*
X6402504Y7939424D01*
X6411639Y7961477D01*
X6428517Y7978355D01*
X6450570Y7987489D01*
X6462504D01*
X6572505Y7987490D01*
X6584439D01*
X6606492Y7978355D01*
D02*
G37*
D35*
X6469535Y7920459D02*
D03*
X6469531Y7070538D02*
D03*
D58*
X10812500Y10375000D02*
D03*
X11212500D02*
D03*
X8555000Y4582500D02*
D03*
X8155000D02*
D03*
D59*
X6452500Y7895000D02*
D03*
X6452500Y7096000D02*
D03*
D60*
X6012500Y7063500D02*
D03*
Y7927500D02*
D03*
D61*
X6517500D02*
D03*
Y7063500D02*
D03*
D62*
X6317500Y7855500D02*
D03*
D63*
Y7135500D02*
D03*
D64*
X12340190Y5407500D02*
D03*
X9322690Y5455000D02*
D03*
D65*
X11839810Y5407500D02*
D03*
X8822310Y5455000D02*
D03*
D66*
X8326716Y8108284D02*
D03*
X8383284Y8051716D02*
D03*
D91*
X8640000Y4977500D02*
D03*
X8602500Y4897500D02*
D03*
X8827500Y8006992D02*
D03*
X7047500Y7990000D02*
D03*
X13612500Y6467500D02*
D03*
X11677500Y8067500D02*
D03*
X7402500Y6097500D02*
D03*
X7517500Y5895000D02*
D03*
X8000000Y5410000D02*
D03*
X8102500Y5517500D02*
D03*
X6525000Y6057500D02*
D03*
X7510804Y7571696D02*
D03*
X7510000Y7755000D02*
D03*
X11340000Y8767500D02*
D03*
X11347500Y9192500D02*
D03*
X13637500Y9025000D02*
D03*
X6860000Y6397500D02*
D03*
X6805000Y6475000D02*
D03*
X6747500Y6545000D02*
D03*
X6757500Y6665000D02*
D03*
X8101317Y6266183D02*
D03*
X7930000Y5597500D02*
D03*
X9347500Y6242500D02*
D03*
X9245000Y6340000D02*
D03*
X11465000Y6687500D02*
D03*
X11627500Y6852500D02*
D03*
X8030000Y8032500D02*
D03*
X8607500Y8205000D02*
D03*
X8515000Y6985000D02*
D03*
X8510000Y6700000D02*
D03*
X8730000Y7920000D02*
D03*
X9220000Y6822500D02*
D03*
X8910000Y7302500D02*
D03*
X8965000Y6917500D02*
D03*
X8380000D02*
D03*
X8295000Y6765000D02*
D03*
X8195000Y6830000D02*
D03*
X7062500Y8857500D02*
D03*
X6962500Y8860000D02*
D03*
X6855000Y8857500D02*
D03*
X10248462Y8553462D02*
D03*
X8392500Y8522500D02*
D03*
X7830000Y7330000D02*
D03*
X10245000Y8377500D02*
D03*
X10247500Y8462500D02*
D03*
X9690000Y8842500D02*
D03*
X9599186Y8813315D02*
D03*
X9534676Y8760324D02*
D03*
X9467340Y8710160D02*
D03*
X9365000Y8290000D02*
D03*
X8920000Y10170000D02*
D03*
X8980000Y8345000D02*
D03*
X8842500Y8207500D02*
D03*
X10755000Y9775000D02*
D03*
X10600000Y9777500D02*
D03*
X9962500Y6460000D02*
D03*
X9498297Y6711702D02*
D03*
X9585000Y5590000D02*
D03*
X7712500Y9140000D02*
D03*
X8920000Y10285000D02*
D03*
X8400000Y10167500D02*
D03*
X9347500Y10290000D02*
D03*
X9982500Y9317500D02*
D03*
X11292500Y9932500D02*
D03*
X10772500Y7665000D02*
D03*
X10247500Y8287500D02*
D03*
X10585000Y8357500D02*
D03*
X8997500Y8647500D02*
D03*
X10405962Y6860962D02*
D03*
X10527500Y6742500D02*
D03*
X12535000Y5357500D02*
D03*
X11535000Y4892500D02*
D03*
X10687500Y5247500D02*
D03*
X10245000Y5240000D02*
D03*
X7130000Y6127500D02*
D03*
X11165000Y7040000D02*
D03*
X11332500Y7035000D02*
D03*
X11065000Y6337500D02*
D03*
X6435000Y8102500D02*
D03*
X6712500Y7007500D02*
D03*
X6742500Y8052500D02*
D03*
X7180000Y7607500D02*
D03*
X9967424Y9152500D02*
D03*
X9967500Y8997500D02*
D03*
X8670000Y9435049D02*
D03*
X8492500Y9437362D02*
D03*
D92*
X7325000Y8542500D02*
D03*
X7400000D02*
D03*
X7249999D02*
D03*
%TF.MD5,9e38a4da67690044bed5c9ee84f735c4*%
M02*
