%TF.GenerationSoftware,Altium Limited,Altium Designer,25.3.3 (18)*%
G04 Layer_Physical_Order=1*
G04 Layer_Color=255*
%FSLAX45Y45*%
%MOMM*%
%TF.SameCoordinates,C60B5D50-6102-498E-8A7F-52ABF2EF578F*%
%TF.FilePolarity,Positive*%
%TF.FileFunction,Copper,L1,Top,Signal*%
%TF.Part,Single*%
G01*
G75*
%TA.AperFunction,BGAPad,CuDef*%
%ADD10R,0.90000X0.90000*%
%TA.AperFunction,SMDPad,CuDef*%
%ADD11R,1.50000X0.90000*%
%ADD12R,0.90000X1.50000*%
%ADD13R,1.27000X1.02000*%
%ADD14R,0.52000X0.52000*%
%ADD15R,2.60000X1.90000*%
%ADD16R,1.00000X0.80000*%
%ADD17R,1.50000X1.55000*%
%ADD18P,0.73539X4X180.0*%
%TA.AperFunction,BGAPad,CuDef*%
%ADD19C,0.36000*%
%TA.AperFunction,SMDPad,CuDef*%
G04:AMPARAMS|DCode=20|XSize=1.3mm|YSize=2mm|CornerRadius=0mm|HoleSize=0mm|Usage=FLASHONLY|Rotation=45.000|XOffset=0mm|YOffset=0mm|HoleType=Round|Shape=Rectangle|*
%AMROTATEDRECTD20*
4,1,4,0.24749,-1.16673,-1.16673,0.24749,-0.24749,1.16673,1.16673,-0.24749,0.24749,-1.16673,0.0*
%
%ADD20ROTATEDRECTD20*%

%ADD21R,1.01213X1.20840*%
%ADD22R,1.15490X2.10620*%
G04:AMPARAMS|DCode=23|XSize=0.8mm|YSize=0.6mm|CornerRadius=0mm|HoleSize=0mm|Usage=FLASHONLY|Rotation=315.000|XOffset=0mm|YOffset=0mm|HoleType=Round|Shape=Rectangle|*
%AMROTATEDRECTD23*
4,1,4,-0.49497,0.07071,-0.07071,0.49497,0.49497,-0.07071,0.07071,-0.49497,-0.49497,0.07071,0.0*
%
%ADD23ROTATEDRECTD23*%

%ADD24R,0.80000X1.00000*%
%ADD25R,0.80000X0.70000*%
G04:AMPARAMS|DCode=26|XSize=0.36mm|YSize=0.25mm|CornerRadius=0mm|HoleSize=0mm|Usage=FLASHONLY|Rotation=315.000|XOffset=0mm|YOffset=0mm|HoleType=Round|Shape=Rectangle|*
%AMROTATEDRECTD26*
4,1,4,-0.21567,0.03889,-0.03889,0.21567,0.21567,-0.03889,0.03889,-0.21567,-0.21567,0.03889,0.0*
%
%ADD26ROTATEDRECTD26*%

G04:AMPARAMS|DCode=27|XSize=0.3mm|YSize=1.6mm|CornerRadius=0mm|HoleSize=0mm|Usage=FLASHONLY|Rotation=225.000|XOffset=0mm|YOffset=0mm|HoleType=Round|Shape=Round|*
%AMOVALD27*
21,1,1.30000,0.30000,0.00000,0.00000,315.0*
1,1,0.30000,-0.45962,0.45962*
1,1,0.30000,0.45962,-0.45962*
%
%ADD27OVALD27*%

G04:AMPARAMS|DCode=28|XSize=0.3mm|YSize=1.6mm|CornerRadius=0mm|HoleSize=0mm|Usage=FLASHONLY|Rotation=135.000|XOffset=0mm|YOffset=0mm|HoleType=Round|Shape=Round|*
%AMOVALD28*
21,1,1.30000,0.30000,0.00000,0.00000,225.0*
1,1,0.30000,0.45962,0.45962*
1,1,0.30000,-0.45962,-0.45962*
%
%ADD28OVALD28*%

%ADD29P,0.73539X4X90.0*%
%ADD30R,0.80000X0.80000*%
%ADD31R,1.00000X1.00000*%
%ADD32O,0.45000X1.30000*%
%TA.AperFunction,ConnectorPad*%
%ADD33R,0.90000X0.27000*%
%TA.AperFunction,SMDPad,CuDef*%
%ADD34C,1.20656*%
%ADD35C,1.20655*%
%ADD36R,1.30000X0.80000*%
%ADD37R,3.00000X2.10000*%
G04:AMPARAMS|DCode=38|XSize=1.55mm|YSize=1.5mm|CornerRadius=0mm|HoleSize=0mm|Usage=FLASHONLY|Rotation=315.000|XOffset=0mm|YOffset=0mm|HoleType=Round|Shape=Rectangle|*
%AMROTATEDRECTD38*
4,1,4,-1.07834,0.01768,-0.01768,1.07834,1.07834,-0.01768,0.01768,-1.07834,-1.07834,0.01768,0.0*
%
%ADD38ROTATEDRECTD38*%

G04:AMPARAMS|DCode=39|XSize=1.35mm|YSize=1.1mm|CornerRadius=0mm|HoleSize=0mm|Usage=FLASHONLY|Rotation=135.000|XOffset=0mm|YOffset=0mm|HoleType=Round|Shape=Rectangle|*
%AMROTATEDRECTD39*
4,1,4,0.86621,-0.08839,0.08839,-0.86621,-0.86621,0.08839,-0.08839,0.86621,0.86621,-0.08839,0.0*
%
%ADD39ROTATEDRECTD39*%

G04:AMPARAMS|DCode=40|XSize=1.3mm|YSize=1mm|CornerRadius=0mm|HoleSize=0mm|Usage=FLASHONLY|Rotation=135.000|XOffset=0mm|YOffset=0mm|HoleType=Round|Shape=Rectangle|*
%AMROTATEDRECTD40*
4,1,4,0.81318,-0.10607,0.10607,-0.81318,-0.81318,0.10607,-0.10607,0.81318,0.81318,-0.10607,0.0*
%
%ADD40ROTATEDRECTD40*%

G04:AMPARAMS|DCode=41|XSize=1.4549mm|YSize=1.5562mm|CornerRadius=0mm|HoleSize=0mm|Usage=FLASHONLY|Rotation=135.000|XOffset=0mm|YOffset=0mm|HoleType=Round|Shape=Rectangle|*
%AMROTATEDRECTD41*
4,1,4,1.06459,0.03581,-0.03581,-1.06459,-1.06459,-0.03581,0.03581,1.06459,1.06459,0.03581,0.0*
%
%ADD41ROTATEDRECTD41*%

G04:AMPARAMS|DCode=42|XSize=1.7mm|YSize=0.65mm|CornerRadius=0mm|HoleSize=0mm|Usage=FLASHONLY|Rotation=225.000|XOffset=0mm|YOffset=0mm|HoleType=Round|Shape=Rectangle|*
%AMROTATEDRECTD42*
4,1,4,0.37123,0.83085,0.83085,0.37123,-0.37123,-0.83085,-0.83085,-0.37123,0.37123,0.83085,0.0*
%
%ADD42ROTATEDRECTD42*%

%ADD43R,0.52000X0.52000*%
%ADD44R,0.54200X1.68500*%
G04:AMPARAMS|DCode=45|XSize=0.86107mm|YSize=0.23928mm|CornerRadius=0mm|HoleSize=0mm|Usage=FLASHONLY|Rotation=45.000|XOffset=0mm|YOffset=0mm|HoleType=Round|Shape=Rectangle|*
%AMROTATEDRECTD45*
4,1,4,-0.21983,-0.38903,-0.38903,-0.21983,0.21983,0.38903,0.38903,0.21983,-0.21983,-0.38903,0.0*
%
%ADD45ROTATEDRECTD45*%

G04:AMPARAMS|DCode=46|XSize=0.86107mm|YSize=0.23928mm|CornerRadius=0.11964mm|HoleSize=0mm|Usage=FLASHONLY|Rotation=45.000|XOffset=0mm|YOffset=0mm|HoleType=Round|Shape=RoundedRectangle|*
%AMROUNDEDRECTD46*
21,1,0.86107,0.00000,0,0,45.0*
21,1,0.62178,0.23928,0,0,45.0*
1,1,0.23928,0.21983,0.21983*
1,1,0.23928,-0.21983,-0.21983*
1,1,0.23928,-0.21983,-0.21983*
1,1,0.23928,0.21983,0.21983*
%
%ADD46ROUNDEDRECTD46*%
G04:AMPARAMS|DCode=47|XSize=1.4mm|YSize=1.6mm|CornerRadius=0mm|HoleSize=0mm|Usage=FLASHONLY|Rotation=45.000|XOffset=0mm|YOffset=0mm|HoleType=Round|Shape=Rectangle|*
%AMROTATEDRECTD47*
4,1,4,0.07071,-1.06066,-1.06066,0.07071,-0.07071,1.06066,1.06066,-0.07071,0.07071,-1.06066,0.0*
%
%ADD47ROTATEDRECTD47*%

%ADD48R,1.00000X1.80000*%
%ADD49R,0.73504X0.86213*%
G04:AMPARAMS|DCode=50|XSize=0.8mm|YSize=0.6mm|CornerRadius=0mm|HoleSize=0mm|Usage=FLASHONLY|Rotation=225.000|XOffset=0mm|YOffset=0mm|HoleType=Round|Shape=Rectangle|*
%AMROTATEDRECTD50*
4,1,4,0.07071,0.49497,0.49497,0.07071,-0.07071,-0.49497,-0.49497,-0.07071,0.07071,0.49497,0.0*
%
%ADD50ROTATEDRECTD50*%

%ADD51R,1.70000X0.95000*%
%ADD52R,1.90000X2.60000*%
G04:AMPARAMS|DCode=53|XSize=0.9mm|YSize=2mm|CornerRadius=0.0495mm|HoleSize=0mm|Usage=FLASHONLY|Rotation=90.000|XOffset=0mm|YOffset=0mm|HoleType=Round|Shape=RoundedRectangle|*
%AMROUNDEDRECTD53*
21,1,0.90000,1.90100,0,0,90.0*
21,1,0.80100,2.00000,0,0,90.0*
1,1,0.09900,0.95050,0.40050*
1,1,0.09900,0.95050,-0.40050*
1,1,0.09900,-0.95050,-0.40050*
1,1,0.09900,-0.95050,0.40050*
%
%ADD53ROUNDEDRECTD53*%
G04:AMPARAMS|DCode=54|XSize=0.25mm|YSize=0.5mm|CornerRadius=0.05mm|HoleSize=0mm|Usage=FLASHONLY|Rotation=180.000|XOffset=0mm|YOffset=0mm|HoleType=Round|Shape=RoundedRectangle|*
%AMROUNDEDRECTD54*
21,1,0.25000,0.40000,0,0,180.0*
21,1,0.15000,0.50000,0,0,180.0*
1,1,0.10000,-0.07500,0.20000*
1,1,0.10000,0.07500,0.20000*
1,1,0.10000,0.07500,-0.20000*
1,1,0.10000,-0.07500,-0.20000*
%
%ADD54ROUNDEDRECTD54*%
%ADD55R,1.35000X1.00000*%
%TA.AperFunction,Conductor*%
%ADD56C,0.30000*%
%ADD57C,0.26017*%
%TA.AperFunction,ComponentPad*%
%ADD58C,0.90000*%
G04:AMPARAMS|DCode=59|XSize=1.25mm|YSize=0.6mm|CornerRadius=0.3mm|HoleSize=0mm|Usage=FLASHONLY|Rotation=90.000|XOffset=0mm|YOffset=0mm|HoleType=Round|Shape=RoundedRectangle|*
%AMROUNDEDRECTD59*
21,1,1.25000,0.00000,0,0,90.0*
21,1,0.65000,0.60000,0,0,90.0*
1,1,0.60000,0.00000,0.32500*
1,1,0.60000,0.00000,-0.32500*
1,1,0.60000,0.00000,-0.32500*
1,1,0.60000,0.00000,0.32500*
%
%ADD59ROUNDEDRECTD59*%
G04:AMPARAMS|DCode=60|XSize=2.6mm|YSize=1.3mm|CornerRadius=0.65mm|HoleSize=0mm|Usage=FLASHONLY|Rotation=180.000|XOffset=0mm|YOffset=0mm|HoleType=Round|Shape=RoundedRectangle|*
%AMROUNDEDRECTD60*
21,1,2.60000,0.00000,0,0,180.0*
21,1,1.30000,1.30000,0,0,180.0*
1,1,1.30000,-0.65000,0.00000*
1,1,1.30000,0.65000,0.00000*
1,1,1.30000,0.65000,0.00000*
1,1,1.30000,-0.65000,0.00000*
%
%ADD60ROUNDEDRECTD60*%
G04:AMPARAMS|DCode=61|XSize=0.6mm|YSize=1.9mm|CornerRadius=0.3mm|HoleSize=0mm|Usage=FLASHONLY|Rotation=90.000|XOffset=0mm|YOffset=0mm|HoleType=Round|Shape=RoundedRectangle|*
%AMROUNDEDRECTD61*
21,1,0.60000,1.30000,0,0,90.0*
21,1,0.00000,1.90000,0,0,90.0*
1,1,0.60000,0.65000,0.00000*
1,1,0.60000,0.65000,0.00000*
1,1,0.60000,-0.65000,0.00000*
1,1,0.60000,-0.65000,0.00000*
%
%ADD61ROUNDEDRECTD61*%
%ADD62C,0.60000*%
G04:AMPARAMS|DCode=63|XSize=0.85mm|YSize=0.5mm|CornerRadius=0.25mm|HoleSize=0mm|Usage=FLASHONLY|Rotation=270.000|XOffset=0mm|YOffset=0mm|HoleType=Round|Shape=RoundedRectangle|*
%AMROUNDEDRECTD63*
21,1,0.85000,0.00000,0,0,270.0*
21,1,0.35000,0.50000,0,0,270.0*
1,1,0.50000,0.00000,-0.17500*
1,1,0.50000,0.00000,0.17500*
1,1,0.50000,0.00000,0.17500*
1,1,0.50000,0.00000,-0.17500*
%
%ADD63ROUNDEDRECTD63*%
%ADD64C,1.54060*%
%ADD65R,1.54060X1.54060*%
%TA.AperFunction,ViaPad*%
%ADD66C,0.60000*%
%ADD67C,0.50000*%
G36*
X7425000Y8580000D02*
X7475000D01*
Y8555000D01*
X7425000D01*
Y8529999D01*
X7475000D01*
Y8504999D01*
X7425000D01*
Y8497500D01*
X7225000D01*
Y8504999D01*
X7175000D01*
Y8529999D01*
X7225000D01*
Y8555000D01*
X7175000D01*
Y8580000D01*
X7225000D01*
Y8587500D01*
X7425000D01*
Y8580000D01*
D02*
G37*
G36*
X8436317Y8267383D02*
X8383284Y8214350D01*
X8380471Y8211537D01*
X8373120Y8208492D01*
X8365164D01*
X8357813Y8211537D01*
X8355000Y8214350D01*
X8352187Y8217163D01*
X8349142Y8224514D01*
Y8232470D01*
X8352187Y8239821D01*
X8355000Y8242634D01*
Y8242635D01*
X8408033Y8295668D01*
X8436317Y8267383D01*
D02*
G37*
G36*
X8503493Y8200208D02*
X8450459Y8147175D01*
X8447646Y8144362D01*
X8440296Y8141317D01*
X8432339D01*
X8424988Y8144362D01*
X8422175Y8147175D01*
X8419362Y8149988D01*
X8416317Y8157339D01*
Y8165296D01*
X8419362Y8172646D01*
X8422175Y8175459D01*
X8475208Y8228492D01*
X8503493Y8200208D01*
D02*
G37*
G36*
X8570668Y8133033D02*
X8517634Y8080000D01*
X8514821Y8077187D01*
X8507471Y8074142D01*
X8499514D01*
X8492163Y8077187D01*
X8489350Y8080000D01*
X8486537Y8082813D01*
X8483493Y8090164D01*
Y8098120D01*
X8486537Y8105471D01*
X8489350Y8108284D01*
X8542383Y8161317D01*
X8570668Y8133033D01*
D02*
G37*
G36*
X8217837Y8082813D02*
X8220650Y8080000D01*
X8223463Y8077187D01*
X8226508Y8069836D01*
Y8061879D01*
X8223463Y8054529D01*
X8220650Y8051716D01*
X8167617Y7998683D01*
X8139332Y8026967D01*
X8192366Y8080000D01*
X8195179Y8082813D01*
X8202529Y8085858D01*
X8210486D01*
X8217837Y8082813D01*
D02*
G37*
G36*
X8285012Y8015638D02*
X8287825Y8012825D01*
X8290638Y8010012D01*
X8293683Y8002661D01*
Y7994704D01*
X8290638Y7987354D01*
X8287825Y7984541D01*
X8287825D01*
X8234792Y7931508D01*
X8206508Y7959792D01*
X8259541Y8012825D01*
X8262354Y8015638D01*
X8269704Y8018683D01*
X8277661D01*
X8285012Y8015638D01*
D02*
G37*
G36*
X6606487Y7978355D02*
X6623366Y7961477D01*
X6632500Y7939425D01*
Y7915555D01*
X6623366Y7893503D01*
X6606487Y7876625D01*
X6584435Y7867490D01*
X6512501D01*
X6510728Y7857895D01*
X6500796Y7841095D01*
X6485692Y7828736D01*
X6467258Y7822329D01*
X6457501Y7822491D01*
X6457500D01*
X6447744Y7822329D01*
X6429309Y7828736D01*
X6414205Y7841095D01*
X6404273Y7857895D01*
X6402500Y7867490D01*
Y7927490D01*
X6402500Y7927490D01*
X6402500Y7939425D01*
X6411635Y7961477D01*
X6428513Y7978355D01*
X6450565Y7987490D01*
X6462500D01*
X6572500Y7987490D01*
X6584435D01*
X6606487Y7978355D01*
D02*
G37*
G36*
X8352187Y7948463D02*
X8355000Y7945650D01*
X8357813Y7942837D01*
X8360858Y7935486D01*
Y7927529D01*
X8357813Y7920178D01*
X8355000Y7917365D01*
X8355000D01*
X8301967Y7864333D01*
X8273683Y7892617D01*
X8326716Y7945650D01*
X8329529Y7948463D01*
X8336879Y7951508D01*
X8344836D01*
X8352187Y7948463D01*
D02*
G37*
G36*
X6485696Y7162265D02*
X6500800Y7149906D01*
X6510732Y7133106D01*
X6512505Y7123511D01*
X6572505Y7123510D01*
X6584439D01*
X6606492Y7114376D01*
X6623370Y7097497D01*
X6632505Y7075445D01*
Y7051575D01*
X6623370Y7029523D01*
X6606492Y7012645D01*
X6584439Y7003511D01*
X6572505D01*
X6462504Y7003511D01*
X6450570D01*
X6428517Y7012645D01*
X6411639Y7029523D01*
X6402504Y7051576D01*
X6402505Y7063511D01*
Y7063511D01*
Y7123511D01*
X6404278Y7133106D01*
X6414209Y7149906D01*
X6429314Y7162265D01*
X6447749Y7168672D01*
X6457505Y7168510D01*
X6467262Y7168672D01*
X6485696Y7162265D01*
D02*
G37*
D10*
X12700500Y7513150D02*
D03*
Y7653150D02*
D03*
Y7793150D02*
D03*
X12840500Y7513150D02*
D03*
Y7653150D02*
D03*
Y7793150D02*
D03*
X12980499Y7513150D02*
D03*
Y7653150D02*
D03*
X12980499Y7793150D02*
D03*
D11*
X11836500Y6931650D02*
D03*
Y7058650D02*
D03*
Y7185650D02*
D03*
Y7312650D02*
D03*
Y7439650D02*
D03*
Y7566650D02*
D03*
Y7693650D02*
D03*
Y7820650D02*
D03*
Y7947650D02*
D03*
Y8074650D02*
D03*
D12*
X13612500Y6628150D02*
D03*
X13485500Y6628150D02*
D03*
X13358501Y6628150D02*
D03*
X13231500D02*
D03*
X13104500D02*
D03*
X12977499D02*
D03*
X12850500Y6628150D02*
D03*
X12723500Y6628150D02*
D03*
X12596500D02*
D03*
X12469500D02*
D03*
X12342500D02*
D03*
X12215500D02*
D03*
X12088500D02*
D03*
X11961500D02*
D03*
Y8378150D02*
D03*
X12088500D02*
D03*
X12215500D02*
D03*
X12342500D02*
D03*
X12469500D02*
D03*
X12596500D02*
D03*
X12723500D02*
D03*
X12850500Y8378150D02*
D03*
X12977499Y8378150D02*
D03*
X13104500D02*
D03*
X13231500D02*
D03*
X13358501D02*
D03*
X13485500Y8378150D02*
D03*
X13612500Y8378150D02*
D03*
D13*
X12300000Y8918999D02*
D03*
Y9071000D02*
D03*
D14*
X13592499Y8612500D02*
D03*
X13512500D02*
D03*
X11455000Y8764999D02*
D03*
X11535000D02*
D03*
X11457501Y9192499D02*
D03*
X11537500Y9192499D02*
D03*
X11092500Y9930000D02*
D03*
X11172500D02*
D03*
D15*
X11862500Y8762499D02*
D03*
X11862500Y9192499D02*
D03*
D16*
X13022501Y8785000D02*
D03*
Y8935000D02*
D03*
X7960000Y5250000D02*
D03*
Y5100000D02*
D03*
X9582500Y5455000D02*
D03*
Y5305000D02*
D03*
D17*
X13632500Y8845000D02*
D03*
X13452499D02*
D03*
D18*
X8022500Y7877500D02*
D03*
X7965932Y7934068D02*
D03*
X9561716Y6648284D02*
D03*
X9618284Y6591716D02*
D03*
X10643284Y7729216D02*
D03*
X10586716Y7785784D02*
D03*
X10091716Y8245784D02*
D03*
X10148284Y8189216D02*
D03*
X7968284Y7196716D02*
D03*
X7911716Y7253284D02*
D03*
X7283284Y6176716D02*
D03*
X7226716Y6233284D02*
D03*
X8238284Y6134216D02*
D03*
X8181716Y6190784D02*
D03*
D19*
X8187062Y8046412D02*
D03*
X8254237Y7979237D02*
D03*
X8321412Y7912062D02*
D03*
X8522938Y8113588D02*
D03*
X8457208Y8182208D02*
D03*
X8388588Y8247938D02*
D03*
D20*
X8355000Y8080000D02*
D03*
D21*
X7047500Y8265186D02*
D03*
Y8104813D02*
D03*
X7707500Y8970187D02*
D03*
Y8809813D02*
D03*
D22*
X7329935Y8190000D02*
D03*
X7515064D02*
D03*
D23*
X8599038Y8439038D02*
D03*
X8690962Y8530962D02*
D03*
X8854038Y8471538D02*
D03*
X8945962Y8563462D02*
D03*
X9334038Y8531538D02*
D03*
X9425962Y8623462D02*
D03*
X9138462Y8555962D02*
D03*
X9046538Y8464038D02*
D03*
D24*
X8002500Y8807500D02*
D03*
X8152500D02*
D03*
X10787500Y9917500D02*
D03*
X10637500D02*
D03*
X8822500Y9720000D02*
D03*
X8972500D02*
D03*
D25*
X8392500Y8807500D02*
D03*
Y8637500D02*
D03*
D26*
X9217801Y6977198D02*
D03*
X9277198Y6917802D02*
D03*
X8975302Y7232198D02*
D03*
X9034698Y7172802D02*
D03*
X9087198Y6960302D02*
D03*
X9027802Y7019698D02*
D03*
D27*
X10007457Y6737213D02*
D03*
X10042812Y6772568D02*
D03*
X10078168Y6807923D02*
D03*
X10113523Y6843279D02*
D03*
X10148878Y6878634D02*
D03*
X10184234Y6913989D02*
D03*
X10219589Y6949345D02*
D03*
X10254944Y6984700D02*
D03*
X10290300Y7020055D02*
D03*
X10325655Y7055411D02*
D03*
X10361010Y7090766D02*
D03*
X10396366Y7126121D02*
D03*
X10431721Y7161477D02*
D03*
X10467076Y7196832D02*
D03*
X10502432Y7232187D02*
D03*
X10537787Y7267543D02*
D03*
X9717543Y8087787D02*
D03*
X9682188Y8052431D02*
D03*
X9646832Y8017076D02*
D03*
X9611477Y7981720D02*
D03*
X9576122Y7946365D02*
D03*
X9540767Y7911010D02*
D03*
X9505411Y7875655D02*
D03*
X9470056Y7840299D02*
D03*
X9434700Y7804944D02*
D03*
X9399345Y7769588D02*
D03*
X9363990Y7734233D02*
D03*
X9328634Y7698878D02*
D03*
X9293279Y7663523D02*
D03*
X9257924Y7628167D02*
D03*
X9222568Y7592812D02*
D03*
X9187213Y7557457D02*
D03*
D28*
X10537787D02*
D03*
X10502432Y7592812D02*
D03*
X10467076Y7628167D02*
D03*
X10431721Y7663523D02*
D03*
X10396366Y7698878D02*
D03*
X10361010Y7734233D02*
D03*
X10325655Y7769588D02*
D03*
X10290300Y7804944D02*
D03*
X10254944Y7840299D02*
D03*
X10219589Y7875655D02*
D03*
X10184233Y7911010D02*
D03*
X10148878Y7946365D02*
D03*
X10113523Y7981720D02*
D03*
X10078168Y8017076D02*
D03*
X10042812Y8052431D02*
D03*
X10007457Y8087787D02*
D03*
X9187213Y7267543D02*
D03*
X9222568Y7232187D02*
D03*
X9257924Y7196832D02*
D03*
X9293279Y7161477D02*
D03*
X9328634Y7126121D02*
D03*
X9363990Y7090766D02*
D03*
X9399345Y7055411D02*
D03*
X9434700Y7020055D02*
D03*
X9470056Y6984700D02*
D03*
X9505411Y6949345D02*
D03*
X9540766Y6913989D02*
D03*
X9576122Y6878634D02*
D03*
X9611477Y6843279D02*
D03*
X9646832Y6807923D02*
D03*
X9682188Y6772568D02*
D03*
X9717543Y6737213D02*
D03*
D29*
X9101568Y7709068D02*
D03*
X9045000Y7652500D02*
D03*
X10108284Y6598284D02*
D03*
X10051716Y6541716D02*
D03*
D30*
X10787500Y10167000D02*
D03*
X11012500Y10167000D02*
D03*
X11237500D02*
D03*
X8580000Y4790500D02*
D03*
X8355000D02*
D03*
X8130000D02*
D03*
D31*
X10637500Y10357000D02*
D03*
X11387500Y10357000D02*
D03*
X8730000Y4600500D02*
D03*
X7980000D02*
D03*
D32*
X8792500Y10335000D02*
D03*
X8727500D02*
D03*
X8662500D02*
D03*
X8597500D02*
D03*
X8792500Y9925000D02*
D03*
X8727500D02*
D03*
X8662500D02*
D03*
X8597500D02*
D03*
D33*
X6587500Y7758000D02*
D03*
Y7708000D02*
D03*
Y7658000D02*
D03*
Y7608000D02*
D03*
Y7558000D02*
D03*
X6587501Y7508000D02*
D03*
X6587500Y7458000D02*
D03*
Y7408000D02*
D03*
Y7358000D02*
D03*
X6587501Y7308000D02*
D03*
X6587500Y7258000D02*
D03*
Y7208000D02*
D03*
X6427500Y7233000D02*
D03*
X6427500Y7283000D02*
D03*
X6427500Y7333000D02*
D03*
Y7383000D02*
D03*
Y7433000D02*
D03*
Y7483000D02*
D03*
Y7533000D02*
D03*
Y7583000D02*
D03*
Y7633000D02*
D03*
Y7683000D02*
D03*
Y7733000D02*
D03*
Y7783001D02*
D03*
D34*
X6469531Y7920459D02*
D03*
D35*
X6469535Y7070541D02*
D03*
D36*
X6292500Y8932500D02*
D03*
Y8807500D02*
D03*
Y8682500D02*
D03*
Y8557500D02*
D03*
Y8432500D02*
D03*
Y6552500D02*
D03*
Y6427500D02*
D03*
Y6302500D02*
D03*
Y6177500D02*
D03*
Y6052500D02*
D03*
D37*
X6017500Y8177500D02*
D03*
Y9187500D02*
D03*
Y5797500D02*
D03*
Y6807500D02*
D03*
D38*
X10452279Y8224779D02*
D03*
X10325000Y8097500D02*
D03*
X8731360Y7666361D02*
D03*
X8858640Y7793640D02*
D03*
D39*
X10483002Y6943002D02*
D03*
X10581997Y7041997D02*
D03*
D40*
X10609467Y6811967D02*
D03*
X10715533Y6918033D02*
D03*
X11149467Y6421967D02*
D03*
X11255533Y6528033D02*
D03*
D41*
X11025453Y6647047D02*
D03*
X10894547Y6777953D02*
D03*
D42*
X7971292Y6813390D02*
D03*
X7881489Y6903193D02*
D03*
X7791686Y6992995D02*
D03*
X7701884Y7082798D02*
D03*
X7185696Y6566610D02*
D03*
X7275499Y6476807D02*
D03*
X7365301Y6387005D02*
D03*
X7455104Y6297202D02*
D03*
D43*
X9485000Y10200000D02*
D03*
Y10280000D02*
D03*
X8395000Y10357500D02*
D03*
Y10277500D02*
D03*
X8607500Y5075000D02*
D03*
Y5155000D02*
D03*
X11532500Y5015000D02*
D03*
Y5095000D02*
D03*
D44*
X9487000Y9481400D02*
D03*
X9614000D02*
D03*
X9741000D02*
D03*
X9868000D02*
D03*
Y10018600D02*
D03*
X9741000D02*
D03*
X9614000D02*
D03*
X9487000D02*
D03*
D45*
X7918667Y5789732D02*
D03*
D46*
X7954022Y5754377D02*
D03*
X7989377Y5719022D02*
D03*
X8024733Y5683667D02*
D03*
X8226333Y5885267D02*
D03*
X8190978Y5920623D02*
D03*
X8155623Y5955978D02*
D03*
X8120267Y5991333D02*
D03*
D47*
X8072500Y5837500D02*
D03*
D48*
X7150000Y7830000D02*
D03*
X6870000D02*
D03*
D49*
X7079039Y7607500D02*
D03*
X6955961D02*
D03*
D50*
X9005962Y6571538D02*
D03*
X8914038Y6663462D02*
D03*
X9081538Y6493462D02*
D03*
X9173462Y6401538D02*
D03*
D51*
X10685000Y5382500D02*
D03*
Y5662500D02*
D03*
X10242500Y5380000D02*
D03*
Y5660000D02*
D03*
D52*
X10677500Y5950000D02*
D03*
X10247500D02*
D03*
D53*
X7325000Y8542500D02*
D03*
D54*
X7200000Y8637500D02*
D03*
X7250000D02*
D03*
X7300000D02*
D03*
X7350000D02*
D03*
X7400000D02*
D03*
X7450000D02*
D03*
Y8447500D02*
D03*
X7400000D02*
D03*
X7350000Y8447500D02*
D03*
X7300000D02*
D03*
X7250000Y8447500D02*
D03*
X7200000D02*
D03*
D55*
X11535000Y5572500D02*
D03*
Y5752500D02*
D03*
D56*
X10352500Y8875000D02*
X10487500Y9010000D01*
X10352500Y8517500D02*
Y8875000D01*
X10303240Y8468240D02*
X10352500Y8517500D01*
X10248462Y8553462D02*
X10285000Y8590000D01*
Y8890000D02*
X10467500Y9072500D01*
X10285000Y8590000D02*
Y8890000D01*
X10483002Y6938003D02*
Y6999571D01*
X10460000Y7022574D02*
X10483002Y6999571D01*
X10460000Y7022574D02*
Y7062487D01*
X10396366Y7126121D02*
X10460000Y7062487D01*
X8706139Y7666361D02*
X8731360D01*
X8577500Y7795000D02*
X8706139Y7666361D01*
X8577500Y7795000D02*
Y7885000D01*
X8699492Y8006992D01*
X8827500D01*
X13157500Y9060000D02*
X13389999D01*
X7283284Y6176716D02*
X7356760Y6103240D01*
X7047500Y7990000D02*
Y8104813D01*
X13612500Y6467500D02*
Y6628150D01*
X13612500Y6628150D02*
X13612500Y6628150D01*
X12840500Y7653150D02*
X12840500Y7653150D01*
X12980499D01*
X12840500Y7653150D02*
Y7793150D01*
X12980499Y7513150D02*
Y7624574D01*
X12700500Y7513150D02*
X12840500D01*
X12700500D02*
Y7653150D01*
Y7793150D01*
X12840500D02*
X12980499D01*
X12700500D02*
X12840500D01*
X13612500Y8075000D02*
Y8378150D01*
X13505000Y7967500D02*
X13612500Y8075000D01*
X13154849Y7967500D02*
X13505000D01*
X12980499Y7793150D02*
X13154849Y7967500D01*
X13592499Y8502501D02*
Y8612500D01*
Y8502501D02*
X13612500Y8482500D01*
Y8378150D02*
Y8482500D01*
X13507500Y8607500D02*
X13512500Y8612500D01*
X13507500Y8505000D02*
Y8607500D01*
X13485500Y8483000D02*
X13507500Y8505000D01*
X13485500Y8378150D02*
Y8483000D01*
X13022501Y8570000D02*
Y8785000D01*
Y8570000D02*
X13070000Y8522500D01*
X13332500D01*
X13358501Y8496500D01*
Y8378150D02*
Y8496500D01*
X12723500Y8378150D02*
Y8816500D01*
X12596500Y8378150D02*
Y8788500D01*
X11677500Y8067500D02*
X11829350D01*
X11836500Y8074650D01*
X13231500Y6474000D02*
Y6628150D01*
X13104500Y6470500D02*
X13105000Y6470000D01*
X13104500Y6470500D02*
Y6628150D01*
X7356760Y6103240D02*
X7396760D01*
X7402500Y6097500D01*
X7365000Y6030000D02*
X7490000D01*
X7115000Y5962500D02*
X7297500D01*
X6987500Y6090000D02*
X7115000Y5962500D01*
X7297500D02*
X7365000Y6030000D01*
X7395000Y5970000D02*
X7550000D01*
X7185068Y6566610D02*
X7185696D01*
X7320000Y5895000D02*
X7395000Y5970000D01*
X7055000Y5895000D02*
X7320000D01*
X7490000Y6030000D02*
X8000000Y6540000D01*
X7517500Y5695000D02*
Y5895000D01*
Y5695000D02*
X7802500Y5410000D01*
X7635000Y5757500D02*
Y5891790D01*
X7585000Y5912500D02*
X8087500Y6415000D01*
X7635000Y5891790D02*
X8108211Y6365000D01*
X7585000Y5736790D02*
Y5912500D01*
X7550000Y5970000D02*
X8057500Y6477500D01*
X8172500D01*
X7802500Y5410000D02*
X7860000D01*
X6910000Y6040000D02*
X7055000Y5895000D01*
X7635000Y5757500D02*
X7860000Y5532500D01*
X7585000Y5736790D02*
X7839290Y5482500D01*
X8032500D01*
X7820074Y5250000D02*
X7960000D01*
X7802500Y5267574D02*
X7820074Y5250000D01*
X7802500Y5267574D02*
Y5352500D01*
X7860000Y5410000D01*
X8000000D01*
X8102500Y5517500D02*
X8382500Y5797500D01*
X8475000D01*
X8545000Y5867500D01*
X6522500Y6055000D02*
X6525000Y6057500D01*
X6295000Y6055000D02*
X6522500D01*
X6292500Y6052500D02*
X6295000Y6055000D01*
X6742500Y6397500D02*
X6860000D01*
X6522500Y6177500D02*
X6742500Y6397500D01*
X6292500Y6177500D02*
X6522500D01*
X6692500Y6475000D02*
X6805000D01*
X6520000Y6302500D02*
X6692500Y6475000D01*
X6292500Y6302500D02*
X6520000D01*
X6630000Y6545000D02*
X6747500D01*
X6512500Y6427500D02*
X6630000Y6545000D01*
X6292500Y6427500D02*
X6512500D01*
X6602500Y6665000D02*
X6757500D01*
X6490000Y6552500D02*
X6602500Y6665000D01*
X6292500Y6552500D02*
X6490000D01*
X10415000Y8470000D02*
Y8835001D01*
X10322500Y8377500D02*
X10415000Y8470000D01*
Y8835001D02*
X10486790Y8906790D01*
X7930704Y7690000D02*
X8078130Y7837426D01*
X7452500Y7690000D02*
X7930704D01*
X7312500Y7830000D02*
X7452500Y7690000D01*
X7150000Y7830000D02*
X7312500D01*
X8430394Y8447500D02*
X8482500D01*
X8429886Y8448009D02*
X8430394Y8447500D01*
X8364492Y8448009D02*
X8429886D01*
X8292500Y8520000D02*
X8364492Y8448009D01*
X7965932Y7934068D02*
X7966250D01*
X7925000Y8010000D02*
X7976324Y8061324D01*
X8021882Y8032500D02*
X8030000D01*
X7925000Y7975001D02*
Y8010000D01*
X7976324Y8061324D02*
X7993058D01*
X8021882Y8032500D01*
X7925000Y7975001D02*
X7965932Y7934069D01*
Y7934068D02*
Y7934069D01*
X13157500Y9060000D02*
X13170000Y9047500D01*
Y8982500D02*
Y9047500D01*
X13122501Y8935000D02*
X13170000Y8982500D01*
X13022501Y8935000D02*
X13122501D01*
X11580000Y9820000D02*
X11885000Y9515000D01*
X11182500Y9820000D02*
X11580000D01*
X11885000Y9515000D02*
X11950000D01*
X12052500Y9412500D01*
X12572500D01*
X12925000Y9060000D01*
X13157500D01*
X13389999D02*
X13452499Y8997500D01*
Y8845000D02*
Y8997500D01*
X13605000Y6592074D02*
X13612500Y6599574D01*
X11835074Y8047500D02*
X11836500Y8046074D01*
X12460000Y9080000D02*
X12723500Y8816500D01*
X12470000Y8914999D02*
X12596500Y8788500D01*
X13125000Y6367500D02*
X13231500Y6474000D01*
X11627500Y6465000D02*
Y6625000D01*
X11725000Y6367500D02*
X13125000D01*
X11685000Y6478210D02*
Y6682500D01*
X11627500Y6465000D02*
X11725000Y6367500D01*
X11685000Y6478210D02*
X11730710Y6432500D01*
X13067500D01*
X11245000Y7007500D02*
X11627500Y6625000D01*
X13104500Y6599574D02*
X13105000Y6599074D01*
X13067500Y6432500D02*
X13105000Y6470000D01*
X12300000Y9071000D02*
X12309000Y9080000D01*
X12460000D01*
X13512500Y8612500D02*
Y8680000D01*
X13592499Y8612500D02*
X13603499Y8623500D01*
Y8676000D01*
X12181500Y9071000D02*
X12300000D01*
X12060001Y9192499D02*
X12181500Y9071000D01*
X11537500Y9192499D02*
X11862500D01*
X12060001D01*
X11457500Y9192500D02*
X11457501Y9192499D01*
X11347500Y9192500D02*
X11457500D01*
X11347500D02*
Y9192500D01*
X13603499Y8676000D02*
X13625000Y8697500D01*
X13452499Y8740000D02*
X13512500Y8680000D01*
X13625000Y8697500D02*
Y8837500D01*
X13452499Y8740000D02*
Y8845000D01*
X13625000Y8837500D02*
X13632500Y8845000D01*
X13637500Y8850000D01*
Y9025000D01*
X11835425Y8045000D02*
X11836500Y8046074D01*
X11862500Y8762499D02*
X12035000D01*
X12191500Y8918999D01*
X12304000Y8914999D02*
X12470000D01*
X12300000Y8918999D02*
X12304000Y8914999D01*
X12191500Y8918999D02*
X12300000D01*
X11860000Y8764999D02*
X11862500Y8762499D01*
X11535000Y8764999D02*
X11860000Y8764999D01*
X11453750Y8766249D02*
X11455000Y8764999D01*
X11341250Y8766249D02*
X11453750D01*
X11340000Y8767500D02*
X11341250Y8766249D01*
X11332500Y7035000D02*
X11685000Y6682500D01*
X8510000Y6635000D02*
X8555000D01*
X8632500Y6712500D01*
X8914038Y6663462D02*
X8914038D01*
X8864999Y6712500D02*
X8914038Y6663462D01*
X8632500Y6712500D02*
X8864999D01*
X8240000Y6365000D02*
X8510000Y6635000D01*
X8212500Y6365000D02*
X8240000D01*
X8087500Y6415000D02*
X8217500D01*
X8405000Y6602500D02*
Y6655000D01*
X8217500Y6415000D02*
X8405000Y6602500D01*
X8150000Y4995500D02*
X8250500Y4895000D01*
X8330000D01*
X8355000Y4870000D01*
Y4790500D02*
Y4870000D01*
X8032500Y5482500D02*
X8150000Y5365000D01*
X8267647Y6047500D02*
X8297573Y6077426D01*
X8176435Y6047500D02*
X8267647D01*
X8120268Y5991333D02*
X8176435Y6047500D01*
X8120267Y5991333D02*
X8120268D01*
X7860000Y5532500D02*
X8020000D01*
X8238284Y6134216D02*
X8240784D01*
X8297573Y6077426D01*
X8322426D01*
X8360000Y6115000D01*
Y6217500D01*
X8212500Y6365000D02*
X8360000Y6217500D01*
X8108211Y6365000D02*
X8212500D01*
X8020000Y5532500D02*
X8355000Y5867500D01*
X8545000D01*
X9071967Y6394467D01*
X9166391D01*
X9173462Y6401538D01*
X8101317Y6266183D02*
X8103817D01*
X8179216Y6190784D01*
X7930000Y5597500D02*
X7934283D01*
X8022949Y5686166D02*
Y5686177D01*
X7934283Y5597500D02*
X8022949Y5686166D01*
X8150000Y4995500D02*
Y5365000D01*
X8419424Y5985000D02*
X9005962Y6571538D01*
X8280360Y5935000D02*
X8523076D01*
X8255355Y5985000D02*
X8419424D01*
X8523076Y5935000D02*
X9081538Y6493462D01*
X8226333Y5885267D02*
X8230627D01*
X8280360Y5935000D01*
X9081538Y6493462D02*
X9158076Y6570000D01*
X9695000Y5065000D02*
Y5077500D01*
X9945000Y5327500D01*
Y6170000D01*
X9872500Y6242500D02*
X9945000Y6170000D01*
X9347500Y6242500D02*
X9872500D01*
X9695000Y5065000D02*
X9762500D01*
X9240000Y6340000D02*
X9245000D01*
X9178462Y6401538D02*
X9240000Y6340000D01*
X9173462Y6401538D02*
X9178462D01*
X9762500Y5065000D02*
X10010000Y5312500D01*
Y6200000D01*
X9618284Y6591716D02*
X10010000Y6200000D01*
X9762500Y5065000D02*
X9837500D01*
X10067500Y5295000D01*
Y6307500D01*
X12347500Y5977500D02*
X12530000Y5795000D01*
X11512500Y5977500D02*
X12347500D01*
X10665000Y8607500D02*
Y9035000D01*
X10618750Y9081250D02*
X10665000Y9035000D01*
X10618750Y9081250D02*
Y9308750D01*
X10067500Y6307500D02*
X10240000Y6480000D01*
Y6615000D01*
X10207500Y6647500D02*
X10240000Y6615000D01*
X10157501Y6647500D02*
X10207500D01*
X10108285Y6598284D02*
X10157501Y6647500D01*
X10108284Y6598284D02*
X10108285D01*
X9582500Y5110000D02*
Y5305000D01*
Y5110000D02*
X9627500Y5065000D01*
X9695000D01*
X9837500D02*
X10077500Y4825000D01*
X11320000D01*
X11375000Y4770000D01*
X11682500D01*
X11732500Y4820000D01*
Y4930000D01*
X11812500Y5010000D01*
X12522500D01*
X12640000Y5127500D01*
Y5450000D01*
X12530000Y5560000D02*
X12640000Y5450000D01*
X12530000Y5560000D02*
Y5795000D01*
X11535000Y5752500D02*
Y5955000D01*
X11512500Y5977500D02*
X11535000Y5955000D01*
X11452500Y5977500D02*
X11512500D01*
X11242500Y6187500D02*
X11452500Y5977500D01*
X11242500Y6187500D02*
Y6302500D01*
X11410000Y6470000D01*
Y6537500D01*
X11362500Y6585000D02*
X11410000Y6537500D01*
X11244926Y6538639D02*
X11276139D01*
X11322500Y6585000D01*
X11362500D01*
X11465000Y6687500D01*
X11276139Y6527782D02*
X11305282D01*
X11136518Y6647047D02*
X11244926Y6538639D01*
X11114280Y6647047D02*
X11136518D01*
X11110699Y6650628D02*
X11114280Y6647047D01*
X11029035Y6650628D02*
X11110699D01*
X11025453Y6647047D02*
X11029035Y6650628D01*
X10690000Y7635000D02*
X11108984Y7216017D01*
X11245000Y7007500D02*
Y7082500D01*
X11108984Y7216017D02*
X11111483D01*
X10615330Y7635000D02*
X10690000D01*
X11111483Y7216017D02*
X11245000Y7082500D01*
X11625000Y6852500D02*
X11627500D01*
X11362500Y7115000D02*
X11625000Y6852500D01*
X11300000Y7115000D02*
X11362500D01*
X10862500Y7552500D02*
X11300000Y7115000D01*
X10862500Y7552500D02*
Y7680000D01*
X10737500Y7805000D02*
X10862500Y7680000D01*
X10737500Y7805000D02*
Y7842500D01*
X10915000Y8020000D01*
Y8114068D01*
X8022500Y7877500D02*
X8038057D01*
X8078130Y7837426D01*
X8104926D01*
X8140000Y7872500D01*
Y7999350D01*
X8187062Y8046412D01*
X8108096Y7963096D02*
Y7967446D01*
X8607500Y8199773D02*
Y8205000D01*
X8522938Y8115211D02*
X8607500Y8199773D01*
X8522938Y8113588D02*
Y8115211D01*
X8530000Y8400000D02*
X8573431Y8443431D01*
X8594645D02*
X8599038Y8439038D01*
X8482500Y8447500D02*
X8530000Y8400000D01*
X8573431Y8443431D02*
X8594645D01*
X8087500Y7077500D02*
X8122500Y7042500D01*
X8087500Y7077500D02*
Y7225000D01*
X8062500Y7250000D02*
X8087500Y7225000D01*
X8021568Y7250000D02*
X8062500D01*
X8205710Y7042500D02*
X8263210Y6985000D01*
X9240901Y7109099D02*
Y7109099D01*
X8185000Y6992500D02*
X8340000Y6837500D01*
X7970797Y6992500D02*
X8185000D01*
X8122500Y7042500D02*
X8205710D01*
X8263210Y6985000D02*
X8515000D01*
X8380000Y6917500D02*
X8780104D01*
X8340000Y6837500D02*
X8980000D01*
X8504260Y6694260D02*
X8510000Y6700000D01*
X8444260Y6694260D02*
X8504260D01*
X8405000Y6655000D02*
X8444260Y6694260D01*
X8435000Y6767500D02*
X9007397D01*
X8730000Y7920000D02*
X8856360Y7793640D01*
X8858640D01*
X9087198Y6956059D02*
X9169931Y7038792D01*
X9170594D01*
X9240901Y7109099D02*
X9293279Y7161477D01*
X9170594Y7038792D02*
X9240901Y7109099D01*
X9265000Y7032500D02*
Y7062487D01*
X9217448Y6977551D02*
Y6981087D01*
X9217801Y6981441D02*
Y6985301D01*
X9265000Y7062487D02*
X9328634Y7126121D01*
X9217801Y6985301D02*
X9265000Y7032500D01*
X9217448Y6981087D02*
X9217801Y6981441D01*
X9220000Y6822500D02*
X9222500Y6820000D01*
X9292500D01*
X9312500Y6840000D01*
Y6878964D01*
X9277198Y6914266D02*
X9312500Y6878964D01*
X9277198Y6914266D02*
Y6917802D01*
X8910000Y7300000D02*
Y7302500D01*
Y7300000D02*
X8975302Y7234698D01*
Y7232198D02*
Y7234698D01*
X8965000Y6917500D02*
Y6925618D01*
X8937907Y6952711D02*
X8965000Y6925618D01*
X8937907Y6952711D02*
Y7004593D01*
X8976213Y7042899D01*
X9001065D01*
X9024266Y7019698D01*
X9027802D01*
X8980000Y6837500D02*
X9087198Y6944698D01*
X8345000Y6650000D02*
Y6677500D01*
X8435000Y6767500D01*
X8172500Y6477500D02*
X8345000Y6650000D01*
X8140000Y6540000D02*
X8295000Y6695000D01*
X8000000Y6540000D02*
X8140000D01*
X7968284Y7196716D02*
X8021568Y7250000D01*
X8295000Y6765000D02*
X8295000Y6765000D01*
Y6695000D02*
Y6765000D01*
X9007397Y6767500D02*
X9217448Y6977551D01*
X7881490Y6903193D02*
X7970797Y6992500D01*
X8068530Y6900000D02*
X8125000D01*
X8195000Y6830000D01*
X7881489Y6903193D02*
X7881490D01*
X8195000Y6830000D02*
X8195000D01*
X8022949Y5686177D02*
X8079571Y5742798D01*
Y5830429D01*
X8072500Y5837500D02*
X8079571Y5830429D01*
X7062500Y8645000D02*
Y8857500D01*
X6922500Y8505000D02*
X7062500Y8645000D01*
X6462500Y8505000D02*
X6922500D01*
X6410000Y8557500D02*
X6462500Y8505000D01*
X6962500Y8720000D02*
Y8860000D01*
X6867500Y8625000D02*
X6962500Y8720000D01*
X6470000Y8625000D02*
X6867500D01*
X6412500Y8682500D02*
X6470000Y8625000D01*
X6295000Y8930000D02*
X7085000D01*
X6855000Y8755000D02*
Y8857500D01*
X6825000Y8725000D02*
X6855000Y8755000D01*
X6497500Y8725000D02*
X6825000D01*
X6415000Y8807500D02*
X6497500Y8725000D01*
X6292500Y8557500D02*
X6410000D01*
X8392500Y8522500D02*
Y8637500D01*
X7830000Y7330000D02*
X7832500D01*
X7909216Y7253284D02*
X7911716D01*
X7832500Y7330000D02*
X7909216Y7253284D01*
X10245000Y8377500D02*
X10322500D01*
X10253240Y8468240D02*
X10303240D01*
X10247500Y8462500D02*
X10253240Y8468240D01*
X10507500Y8531789D02*
Y8906790D01*
X10486790D02*
X10507500D01*
X10487500Y9010000D02*
X10542426D01*
X10560000Y8992426D01*
Y8550000D02*
Y8992426D01*
X10170000Y8324068D02*
Y8860000D01*
X10618750Y9308750D01*
X10467500Y9072500D02*
X10552500D01*
X10615000Y9010000D01*
Y8565710D02*
Y9010000D01*
X10507500Y8531789D02*
X10747500Y8291789D01*
X10560000Y8550000D02*
X10800000Y8310000D01*
X10747500Y8191433D02*
Y8291789D01*
X10615000Y8565710D02*
X10850000Y8330710D01*
X10665000Y8607500D02*
X10915000Y8357500D01*
X10850000Y8152512D02*
Y8330710D01*
X10915000Y8114068D02*
Y8357500D01*
X10586716Y7785784D02*
X10915000Y8114068D01*
X10567500Y9622500D02*
X10618750Y9571250D01*
Y9308750D02*
Y9571250D01*
X10147500Y8910000D02*
X10567500Y9330000D01*
Y9622500D01*
X10091716Y8245784D02*
X10170000Y8324068D01*
X10567500Y9622500D02*
X10680000Y9735000D01*
X9690000Y8834382D02*
Y8842500D01*
Y8834382D02*
X9735000Y8789382D01*
Y8460000D02*
Y8789382D01*
X9555000Y8910000D02*
X10147500D01*
X9597500Y8322500D02*
X9735000Y8460000D01*
X9680000Y8483579D02*
Y8732500D01*
X9599186Y8813315D02*
X9680000Y8732500D01*
X9534676Y8760324D02*
X9625355Y8669645D01*
Y8499645D02*
Y8669645D01*
X9467340Y8710160D02*
X9570717Y8606783D01*
Y8533217D02*
Y8606783D01*
X9535710Y8339290D02*
X9680000Y8483579D01*
X9480000Y8354290D02*
X9625355Y8499645D01*
X9430000Y8392500D02*
X9570717Y8533217D01*
X9480000Y8183908D02*
Y8354290D01*
X10325655Y7769588D02*
X10747500Y8191433D01*
X10800000Y8173223D02*
Y8310000D01*
X10361010Y7734233D02*
X10800000Y8173223D01*
X10396366Y7698878D02*
X10850000Y8152512D01*
X9597500Y8207830D02*
Y8322500D01*
Y8207830D02*
X9717543Y8087787D01*
X9430000Y8342500D02*
Y8392500D01*
X9190000Y8182500D02*
Y8225000D01*
X9392500Y8427500D02*
Y8473076D01*
X9190000Y8225000D02*
X9392500Y8427500D01*
X9535710Y8198909D02*
Y8339290D01*
Y8198909D02*
X9682188Y8052431D01*
X9430000Y8342500D02*
X9430000Y8342500D01*
Y8163197D02*
Y8342500D01*
Y8163197D02*
X9611477Y7981720D01*
X9480000Y8183908D02*
X9646832Y8017076D01*
X9282500Y8207500D02*
X9365000Y8290000D01*
X9352855Y8090355D02*
X9432132D01*
X9332500Y8040000D02*
X9411775D01*
X9432132Y8090355D02*
X9576122Y7946365D01*
X9411775Y8040000D02*
X9454637Y7997137D01*
X9287855Y7932855D02*
X9377499D01*
X9312145Y7985355D02*
X9395709D01*
X9270000Y7880000D02*
X9359644D01*
X9434700Y7804944D01*
X9377499Y7932855D02*
X9413217Y7897138D01*
X9395709Y7985355D02*
X9433927Y7947138D01*
X9334038Y8531537D02*
X9392500Y8473076D01*
X9334038Y8531537D02*
Y8531538D01*
X9282500Y8160710D02*
X9352855Y8090355D01*
X9069208Y8228292D02*
X9312145Y7985355D01*
X9190000Y8182500D02*
X9332500Y8040000D01*
X8757500Y8392500D02*
X9270000Y7880000D01*
X8907500Y8313210D02*
X9287855Y7932855D01*
X8920000Y9905000D02*
Y10170000D01*
X8874926Y9859926D02*
X8920000Y9905000D01*
X8850074Y9859926D02*
X8874926D01*
X8830370Y9879630D02*
X8850074Y9859926D01*
X8799429Y9879630D02*
X8830370D01*
X8792500Y9886559D02*
X8799429Y9879630D01*
X8792500Y9886559D02*
Y9925000D01*
X8822500Y9720000D02*
Y9807426D01*
X8768683Y9825000D02*
X8804926D01*
X8822500Y9807426D01*
Y8822500D02*
Y9720000D01*
X8730370Y9863313D02*
Y9922130D01*
Y9863313D02*
X8768683Y9825000D01*
X10970000Y9607500D02*
X11182500Y9820000D01*
X10807500Y9607500D02*
X10970000D01*
X10680000Y9735000D02*
X10807500Y9607500D01*
X9045962Y8464038D02*
Y8464038D01*
X8985740Y8403816D02*
X9045962Y8464038D01*
X8985740Y8350740D02*
Y8403816D01*
X8980000Y8345000D02*
X8985740Y8350740D01*
X8836538Y8207500D02*
X8842500D01*
X8605000Y8439038D02*
X8836538Y8207500D01*
X8599038Y8439038D02*
X8605000D01*
X9365000Y8684424D02*
X9425962Y8623462D01*
X9365000Y8684424D02*
Y8720000D01*
X9555000Y8910000D01*
X9487500Y9077500D02*
X10120000D01*
X10460000Y9417500D01*
X10755000Y9775000D02*
X10757500Y9777500D01*
X10902500D01*
X10637500Y9837500D02*
X10680000Y9795000D01*
Y9735000D02*
Y9795000D01*
X10637500Y9837500D02*
Y9917500D01*
X10495000Y9777500D02*
X10600000D01*
X9962500Y6460000D02*
X9966250D01*
X10047966Y6541716D01*
X10051716D01*
X9498297Y6711702D02*
X9561716Y6648284D01*
X9585000Y5457500D02*
Y5590000D01*
X9582500Y5455000D02*
X9585000Y5457500D01*
X9069208Y8228292D02*
Y8336708D01*
X8858640Y7793640D02*
X8858640D01*
X8858640D02*
X8883492D01*
X8953566Y7723566D01*
X8954269Y7724269D01*
X9070811D01*
X9086012Y7709068D01*
X9101568D01*
X9044999Y7652500D02*
X9045000D01*
X8957500D02*
X9045000D01*
X8890000Y7585000D02*
X8957500Y7652500D01*
X8731360Y7666361D02*
X8731361D01*
X8812722Y7585000D01*
X8890000D01*
X7712500Y8975187D02*
Y9140000D01*
X7707500Y8970187D02*
X7712500Y8975187D01*
X8902426Y10487426D02*
Y10495000D01*
X8792500Y10377500D02*
X8902426Y10487426D01*
X8792500Y10335000D02*
Y10377500D01*
X8730370Y10417907D02*
X8807463Y10495000D01*
X8730370Y10337870D02*
Y10417907D01*
X8727500Y10335000D02*
X8730370Y10337870D01*
X8807463Y10495000D02*
X8902426D01*
X8920000Y10285000D02*
Y10477426D01*
X8902426Y10495000D02*
X8920000Y10477426D01*
X8712500Y10495000D02*
X8807463D01*
X8662500Y10445000D02*
X8712500Y10495000D01*
X8662500Y10335000D02*
Y10445000D01*
X8990000Y9737500D02*
Y10492500D01*
X8397500Y10170000D02*
X8400000Y10167500D01*
X8397500Y10170000D02*
Y10275000D01*
X8395000Y10277500D02*
X8397500Y10275000D01*
X9347500Y10290000D02*
X9353240Y10295740D01*
Y10345666D01*
X9367574Y10360000D01*
X9465000D01*
X9485000Y10340000D01*
Y10280000D02*
Y10340000D01*
X9614000Y9344750D02*
X9641250Y9317500D01*
X9614000Y9344750D02*
Y9481400D01*
X9641250Y9317500D02*
X9755000D01*
X9868000Y9318250D02*
X9868750Y9317500D01*
X9868000Y9318250D02*
Y9481400D01*
X9868750Y9317500D02*
X9982500D01*
X9741000Y9331500D02*
X9755000Y9317500D01*
X9741000Y9331500D02*
Y9481400D01*
X9755000Y9317500D02*
X9868750D01*
X9614000Y9424250D02*
Y9481400D01*
X9527500Y9317500D02*
X9641250D01*
X9487000Y9358000D02*
X9527500Y9317500D01*
X9487000Y9358000D02*
Y9481400D01*
X11291250Y9931250D02*
X11292500Y9932500D01*
X11173750Y9931250D02*
X11291250D01*
X11172500Y9930000D02*
X11173750Y9931250D01*
X10708284Y7729216D02*
X10772500Y7665000D01*
X10643284Y7729216D02*
X10708284D01*
X10247034Y8287500D02*
X10247500D01*
X10148750Y8189216D02*
X10247034Y8287500D01*
X10148284Y8189216D02*
X10148750D01*
X10452279Y8224779D02*
X10585000Y8357500D01*
X9282500Y8160710D02*
Y8207500D01*
X8907500Y8313210D02*
Y8407500D01*
X8822500Y8822500D02*
X8997500Y8647500D01*
X9225000Y8640576D02*
X9334038Y8531538D01*
X9454639Y7997137D02*
X9540767Y7911010D01*
X9454637Y7997137D02*
X9454639D01*
X9413217Y7897138D02*
X9413217D01*
X9433927Y7947138D02*
X9433928D01*
X9505411Y7875655D01*
X9069208Y8336708D02*
X9197500Y8465000D01*
X9413217Y7897138D02*
X9470056Y7840299D01*
X9197500Y8465000D02*
Y8496924D01*
X9138462Y8555962D02*
X9197500Y8496924D01*
X9138462Y8555962D02*
Y8555962D01*
X8854038Y8460962D02*
Y8471538D01*
Y8460962D02*
X8907500Y8407500D01*
X8690962Y8530962D02*
X8757500Y8464424D01*
Y8392500D02*
Y8464424D01*
X8780104Y6917500D02*
X9035052Y7172448D01*
X6910000Y6040000D02*
Y6342500D01*
X7035000Y6467500D01*
X7086586D01*
X7185696Y6566610D01*
X6987500Y6090000D02*
Y6245000D01*
X7120000Y6377500D01*
X7176191D01*
X7275499Y6476807D01*
X8179216Y6190784D02*
X8181716D01*
X9087198Y6944698D02*
Y6956059D01*
X10219589Y6949345D02*
X10291434Y6877500D01*
X10297500D01*
Y6877500D02*
Y6877500D01*
Y6877500D02*
X10629660Y6545340D01*
Y6420340D02*
Y6545340D01*
X10405962Y6860962D02*
X10483002Y6938003D01*
X10405962Y6860962D02*
Y6860962D01*
X10184234Y6913989D02*
X10552500Y6545723D01*
Y6270000D02*
Y6545723D01*
X10527500Y6742500D02*
X10596967Y6811967D01*
X10629660Y6420340D02*
X10762500Y6287500D01*
X10915000D01*
X11372500Y5830000D01*
X10552500Y6270000D02*
X10677500Y6145000D01*
X11372500Y5482500D02*
Y5830000D01*
Y5482500D02*
X11450000Y5405000D01*
X11592500D01*
X12528934Y5357500D02*
X12535000D01*
X12478934Y5407500D02*
X12528934Y5357500D01*
X12340190Y5407500D02*
X12478934D01*
X11533750Y4893750D02*
X11535000Y4892500D01*
X11533750Y4893750D02*
Y5013750D01*
X11532500Y5015000D02*
X11533750Y5013750D01*
X10687500Y5247500D02*
Y5380000D01*
X10685000Y5382500D02*
X10687500Y5380000D01*
X10245000Y5240000D02*
Y5377500D01*
X10242500Y5380000D02*
X10245000Y5377500D01*
X8607500Y5010000D02*
X8640000Y4977500D01*
X8607500Y5010000D02*
Y5075000D01*
X8580000Y4875000D02*
X8602500Y4897500D01*
X8580000Y4790500D02*
Y4875000D01*
X6292500Y8682500D02*
X6412500D01*
X6292500Y8807500D02*
X6415000D01*
X7981920Y6813390D02*
X8068530Y6900000D01*
X7971292Y6813390D02*
X7981920D01*
X7130000Y6127500D02*
Y6135618D01*
X7082500Y6183118D02*
X7130000Y6135618D01*
X7082500Y6183118D02*
Y6225000D01*
X7135000Y6277500D01*
X7182499D01*
X7226715Y6233284D01*
X7226716D01*
X11162500Y7040000D02*
X11165000D01*
X10782500Y7272500D02*
X10930000D01*
X11162500Y7040000D01*
X11065000Y6337500D02*
X11149467Y6421967D01*
X11149467D01*
X10596967Y6811967D02*
X10609467D01*
X10690000Y7180000D02*
X10782500Y7272500D01*
X10625330Y7180000D02*
X10690000D01*
X10537787Y7267543D02*
X10625330Y7180000D01*
X10537787Y7557457D02*
X10615330Y7635000D01*
X10638836Y7729216D02*
X10643284D01*
X10502432Y7592812D02*
X10638836Y7729216D01*
X10586716Y7770228D02*
Y7785784D01*
X10555465Y7738977D02*
X10586716Y7770228D01*
X10555465Y7716556D02*
Y7738977D01*
X10467076Y7628167D02*
X10555465Y7716556D01*
X10643284Y7729216D02*
X10643284Y7729216D01*
X6870000Y7790000D02*
Y7830000D01*
X6835000Y7755000D02*
X6870000Y7790000D01*
X7112500Y8395000D02*
Y8697500D01*
X6435000Y8102500D02*
Y8400000D01*
X6402500Y8432500D02*
X6435000Y8400000D01*
X6292500Y8432500D02*
X6402500D01*
X6712500Y7007500D02*
Y7182500D01*
X6687000Y7208000D02*
X6712500Y7182500D01*
X6587500Y7208000D02*
X6687000D01*
X6685000Y7995000D02*
X6742500Y8052500D01*
X6685000Y7785000D02*
Y7995000D01*
X6659501Y7759500D02*
X6685000Y7785000D01*
X6589000Y7759500D02*
X6659501D01*
X6587500Y7758000D02*
X6589000Y7759500D01*
X6747500Y7797500D02*
Y7947500D01*
X6855000Y8055000D01*
X7079039Y7607500D02*
X7180000D01*
X9045962Y8464038D02*
X9046538D01*
X8946538Y8563462D02*
X9045962Y8464038D01*
X8945962Y8563462D02*
X8946538D01*
X8697500Y8628076D02*
Y8680000D01*
X8670000Y8707500D02*
X8697500Y8680000D01*
X8670000Y8707500D02*
Y9435049D01*
X8580000Y8682500D02*
Y9705000D01*
Y8682500D02*
X8610000Y8652500D01*
Y8611924D02*
Y8652500D01*
Y8611924D02*
X8690962Y8530962D01*
X9967424Y9152500D02*
X10080000D01*
X10382500Y9455000D01*
X9080000Y8670000D02*
X9487500Y9077500D01*
X10382500Y9455000D02*
Y9665000D01*
X10245000Y9802500D02*
X10382500Y9665000D01*
X9225000Y8705000D02*
X9517500Y8997500D01*
X9967500D01*
X8492500Y9715000D02*
X8597500Y9820000D01*
X8492500Y9437362D02*
Y9715000D01*
X8697500Y8628076D02*
X8854038Y8471538D01*
X6587500Y7558000D02*
X6735500D01*
X8580000Y9705000D02*
X8662500Y9787500D01*
Y9925000D01*
X8597500Y9820000D02*
Y9925000D01*
X9225000Y8640576D02*
Y8705000D01*
X9080000Y8614425D02*
Y8670000D01*
Y8614425D02*
X9138462Y8555963D01*
Y8555962D02*
Y8555963D01*
X10460000Y9417500D02*
Y9707500D01*
X10245000Y9802500D02*
Y10117500D01*
X10317500Y9850000D02*
Y10180000D01*
Y9850000D02*
X10460000Y9707500D01*
X10152500Y10210000D02*
X10245000Y10117500D01*
X9925000Y10210000D02*
X10152500D01*
X9868000Y10153000D02*
X9925000Y10210000D01*
X9868000Y10018600D02*
Y10153000D01*
X10207500Y10290000D02*
X10317500Y10180000D01*
X9837500Y10290000D02*
X10207500D01*
X9741000Y10193500D02*
X9837500Y10290000D01*
X9741000Y10018600D02*
Y10193500D01*
X11007500Y9930000D02*
X11092500D01*
X10980000Y9902500D02*
X11007500Y9930000D01*
X10980000Y9855000D02*
Y9902500D01*
X10902500Y9777500D02*
X10980000Y9855000D01*
X10405000Y9867500D02*
X10495000Y9777500D01*
X10405000Y9867500D02*
Y10230000D01*
X10255000Y10380000D02*
X10405000Y10230000D01*
X9762500Y10380000D02*
X10255000D01*
X9614000Y10231500D02*
X9762500Y10380000D01*
X9614000Y10018600D02*
Y10231500D01*
X10515000Y9917500D02*
X10637500D01*
X10480000Y9952500D02*
X10515000Y9917500D01*
X10480000Y9952500D02*
Y10267500D01*
X10307500Y10440000D02*
X10480000Y10267500D01*
X9130000Y10440000D02*
X10307500D01*
X8990000Y10492500D02*
X9077500D01*
X9130000Y10440000D01*
X9485000Y10200000D02*
X9486000Y10199000D01*
X9175074Y10200000D02*
X9485000D01*
X9130000Y10245074D02*
X9175074Y10200000D01*
X9130000Y10245074D02*
Y10440000D01*
X8972500Y9720000D02*
X8990000Y9737500D01*
X8937500Y10545000D02*
X8990000Y10492500D01*
X8432500Y10545000D02*
X8937500D01*
X8355000Y10467500D02*
X8432500Y10545000D01*
X8355000Y10467500D02*
X8395000Y10427500D01*
X8070000Y10467500D02*
X8355000D01*
X7940000Y10337500D02*
X8070000Y10467500D01*
X7940000Y9055000D02*
Y10337500D01*
X7867500Y8982500D02*
X7940000Y9055000D01*
X7867500Y8780000D02*
Y8982500D01*
X6586001Y7606500D02*
X6587500Y7608000D01*
X6528003Y7606500D02*
X6586001D01*
X6507500Y7585998D02*
X6528003Y7606500D01*
X6507500Y7380003D02*
Y7585998D01*
Y7380003D02*
X6528003Y7359500D01*
X6586001D01*
X6587500Y7358000D01*
X9322690Y5455000D02*
X9322690Y5455000D01*
X9582500D01*
X7960000Y4960000D02*
Y5100000D01*
Y4960000D02*
X8002500Y4917500D01*
X8082500D01*
X8130000Y4870000D01*
Y4790500D02*
Y4870000D01*
X7841146Y7182714D02*
X7911716Y7253284D01*
X7801800Y7182714D02*
X7841146D01*
X7701884Y7082798D02*
X7801800Y7182714D01*
X7894658Y7123090D02*
X7968284Y7196716D01*
X7894658Y7095967D02*
Y7123090D01*
X7791686Y6992995D02*
X7894658Y7095967D01*
X8190978Y5920623D02*
X8255355Y5985000D01*
X11237500Y10057500D02*
Y10167000D01*
X11172500Y9992500D02*
X11237500Y10057500D01*
X11172500Y9930000D02*
Y9992500D01*
X11012500Y10077500D02*
Y10167000D01*
Y10077500D02*
X11092500Y9997500D01*
Y9930000D02*
Y9997500D01*
X10787500Y9917500D02*
Y10167000D01*
X8594630Y10337870D02*
X8597500Y10335000D01*
X8594630Y10337870D02*
Y10440296D01*
X8574926Y10460000D02*
X8594630Y10440296D01*
X8427500Y10460000D02*
X8574926D01*
X8395000Y10427500D02*
X8427500Y10460000D01*
X8395000Y10357500D02*
Y10427500D01*
X8727500Y9925000D02*
X8730370Y9922130D01*
X9486000Y10019600D02*
X9487000Y10018600D01*
X9486000Y10019600D02*
Y10199000D01*
X6292500Y8932500D02*
X6295000Y8930000D01*
X7085000D02*
X7195000Y8820000D01*
X7537426D01*
X7555000Y8802426D01*
Y8597500D02*
Y8802426D01*
Y8597500D02*
X7707500Y8445000D01*
X7917500Y8520000D02*
X8292500D01*
X7842500Y8445000D02*
X7917500Y8520000D01*
X7762500Y8445000D02*
X7842500D01*
X8152501Y8807500D02*
X8392500D01*
X8152500Y8807500D02*
X8152501Y8807500D01*
X8000000Y8805000D02*
X8002500Y8807500D01*
X7892500Y8805000D02*
X8000000D01*
X7867500Y8780000D02*
X7892500Y8805000D01*
X7867500Y8652500D02*
Y8780000D01*
X7807500Y8592500D02*
X7867500Y8652500D01*
X7807500Y8490000D02*
Y8592500D01*
X7762500Y8445000D02*
X7807500Y8490000D01*
X7707500Y8445000D02*
X7762500D01*
X7640000Y8377500D02*
X7655000Y8362500D01*
Y8232500D02*
Y8362500D01*
X7612500Y8190000D02*
X7655000Y8232500D01*
X7515064Y8190000D02*
X7612500D01*
X7707500Y8445000D02*
Y8809813D01*
X7640000Y8377500D02*
X7707500Y8445000D01*
X7432500Y8377500D02*
X7640000D01*
X7402500Y8407501D02*
X7432500Y8377500D01*
X7402500Y8407501D02*
Y8445000D01*
X7400000Y8447500D02*
X7402500Y8445000D01*
X7250000Y8743124D02*
X7259375Y8752500D01*
X7250000Y8637500D02*
Y8743124D01*
X7259375Y8752500D02*
X7338125D01*
X7350000Y8724999D02*
X7377500Y8752500D01*
X7350000Y8637500D02*
Y8724999D01*
X7300000Y8714374D02*
X7338125Y8752500D01*
X7300000Y8637500D02*
Y8714374D01*
X7338125Y8752500D02*
X7377500D01*
X7200000Y8732499D02*
X7220000Y8752500D01*
X7200000Y8637500D02*
Y8732499D01*
X7220000Y8752500D02*
X7259375D01*
X7400000Y8637500D02*
Y8730000D01*
X7377500Y8752500D02*
X7400000Y8730000D01*
X7167500Y8752500D02*
X7220000D01*
X7112500Y8697500D02*
X7167500Y8752500D01*
X7327434Y8192500D02*
X7329935Y8190000D01*
X7242574Y8192500D02*
X7327434D01*
X7225000Y8210074D02*
X7242574Y8192500D01*
X7225000Y8210074D02*
Y8367500D01*
X7250000Y8392500D01*
Y8447500D01*
X7200000Y8440000D02*
Y8447500D01*
X7155000Y8395000D02*
X7200000Y8440000D01*
X7112500Y8395000D02*
X7155000D01*
X7083107Y8365607D02*
X7112500Y8395000D01*
X7083107Y8300793D02*
Y8365607D01*
X7047500Y8265186D02*
X7083107Y8300793D01*
X6890186Y8265186D02*
X7047500D01*
X6855000Y8230000D02*
X6890186Y8265186D01*
X6855000Y8055000D02*
Y8230000D01*
X6953461Y7610000D02*
X6955961Y7607500D01*
X6787500Y7610000D02*
X6953461D01*
X6735500Y7558000D02*
X6787500Y7610000D01*
X6587500Y7608000D02*
X6688000D01*
X6747500Y7667500D01*
Y7797500D01*
X6780000Y7830000D01*
X6870000D01*
X7226716Y6233284D02*
Y6240099D01*
X7366807Y6380190D01*
Y6387005D01*
X7283284Y6176716D02*
X7298841D01*
X7332125Y6210000D01*
X7369407D01*
X7456609Y6297202D01*
X7456610D01*
X10677500Y5950000D02*
Y6145000D01*
X10148878Y6878634D02*
X10350000Y6677512D01*
Y6282500D02*
Y6677512D01*
X10247500Y6180000D02*
X10350000Y6282500D01*
X10247500Y5950000D02*
Y6180000D01*
X10092728Y6598284D02*
X10108284D01*
X10007457Y6737213D02*
X10053419Y6691251D01*
X11532500Y5345000D02*
X11592500Y5405000D01*
X11532500Y5095000D02*
Y5345000D01*
X11837310Y5405000D02*
X11839810Y5407500D01*
X11592500Y5405000D02*
X11837310D01*
X11535000Y5462500D02*
X11592500Y5405000D01*
X11535000Y5462500D02*
Y5572500D01*
X8802384Y5435074D02*
X8822310Y5455000D01*
X8707574Y5435074D02*
X8802384D01*
X8690000Y5417500D02*
X8707574Y5435074D01*
X8690000Y5307500D02*
Y5417500D01*
X8607500Y5225000D02*
X8690000Y5307500D01*
X8607500Y5155000D02*
Y5225000D01*
X10677500Y5950000D02*
X10685000Y5942500D01*
Y5662500D02*
Y5942500D01*
X10242500Y5945000D02*
X10247500Y5950000D01*
X10242500Y5660000D02*
Y5945000D01*
X9561716Y6652096D02*
X9682188Y6772568D01*
X9561716Y6648284D02*
Y6652096D01*
X9633485Y6653155D02*
X9717543Y6737213D01*
X9633485Y6622473D02*
Y6653155D01*
X9618284Y6607272D02*
X9633485Y6622473D01*
X9618284Y6591716D02*
Y6607272D01*
X9196777Y6570000D02*
X9540766Y6913989D01*
X9158076Y6570000D02*
X9196777D01*
X9181066Y6625000D02*
X9505411Y6949345D01*
X9072708Y6625000D02*
X9181066D01*
X9019246Y6571538D02*
X9072708Y6625000D01*
X9005962Y6571538D02*
X9019246D01*
X10078168Y8017076D02*
X10160359Y8099268D01*
X10323232D01*
X10325000Y8097500D01*
X10007457Y8087787D02*
X10053419Y8133749D01*
X10041511Y8145656D02*
X10053419Y8133749D01*
X10041511Y8145656D02*
Y8195579D01*
X10091716Y8245784D01*
X10042812Y8052431D02*
X10103419Y8113038D01*
Y8144350D01*
X10148284Y8189215D01*
Y8189216D01*
X11025453Y6647047D02*
X11025454D01*
X10715533Y6918033D02*
X10855613Y6777953D01*
X10894547D01*
X10581997Y7041997D02*
X10705962Y6918033D01*
X10715533D01*
X10431721Y7161477D02*
X10551200Y7041997D01*
X10581997D01*
X9035052Y7172448D02*
X9038587D01*
X9061140Y7195000D01*
X9097121D01*
X9155896Y7136226D01*
X9197317D01*
X9257924Y7196832D01*
X9101568Y7709068D02*
Y7709069D01*
Y7709068D02*
X9106312D01*
X9222568Y7592812D01*
X9045000Y7640000D02*
Y7652500D01*
Y7640000D02*
X9067564Y7617436D01*
X9081581Y7603419D01*
X9141251D01*
X9187213Y7557457D01*
D57*
X8762500Y8070000D02*
X8886802D01*
X8714224Y8096723D02*
X8735777D01*
X8395000Y7777500D02*
X8714224Y8096723D01*
X8735777D02*
X8762500Y8070000D01*
X7355000Y7417500D02*
X7509196Y7571696D01*
X6922500Y7470000D02*
X7320000D01*
X7491992Y7641992D02*
X7950590D01*
X7320000Y7470000D02*
X7491992Y7641992D01*
X7509196Y7571696D02*
X7510804D01*
X6900000Y7417500D02*
X7355000D01*
X8086098Y7777500D02*
X8272741D01*
X7950590Y7641992D02*
X8086098Y7777500D01*
X7510000Y7755000D02*
Y7852500D01*
X8454584Y8399491D02*
X8529075Y8325000D01*
X8410508Y8399491D02*
X8454584D01*
X8410000Y8400000D02*
X8410508Y8399491D01*
X8225000Y8400000D02*
X8410000D01*
X7820000Y7995000D02*
X8225000Y8400000D01*
X7652500Y7995000D02*
X7820000D01*
X7510000Y7852500D02*
X7652500Y7995000D01*
X8529075Y8325000D02*
X8592500D01*
X6859500Y7458000D02*
X6900000Y7417500D01*
X6587500Y7458000D02*
X6859500D01*
X6884500Y7508000D02*
X6922500Y7470000D01*
X6587501Y7508000D02*
X6884500D01*
X8607500Y5840000D02*
X9084224Y6316723D01*
X9105777D01*
X9170000Y6252500D01*
X9255000D02*
X9337500Y6335000D01*
X9170000Y6252500D02*
X9255000D01*
X8607500Y5225000D02*
Y5840000D01*
X9245000Y6492500D02*
X9337500Y6400000D01*
X9245000Y6492500D02*
Y6547512D01*
X9337500Y6335000D02*
Y6400000D01*
X9245000Y6547512D02*
X9576122Y6878634D01*
X8257500Y7848150D02*
X8321412Y7912062D01*
X8257500Y7792741D02*
Y7848150D01*
Y7792741D02*
X8272741Y7777500D01*
X8395000D01*
X8886802Y8070000D02*
X9293279Y7663523D01*
X8388588Y8247938D02*
X8465650Y8325000D01*
X8529075D01*
X8592500D02*
X8787500Y8130000D01*
X8897512D01*
X9328634Y7698878D01*
D58*
X10812500Y10375000D02*
D03*
X11212500D02*
D03*
X8555000Y4582500D02*
D03*
X8155000D02*
D03*
D59*
X6452500Y7895000D02*
D03*
X6452500Y7096000D02*
D03*
D60*
X6012500Y7063500D02*
D03*
Y7927500D02*
D03*
D61*
X6517500D02*
D03*
Y7063500D02*
D03*
D62*
X6317500Y7855500D02*
D03*
D63*
Y7135500D02*
D03*
D64*
X12340190Y5407500D02*
D03*
X9322690Y5455000D02*
D03*
D65*
X11839810Y5407500D02*
D03*
X8822310Y5455000D02*
D03*
D66*
X8640000Y4977500D02*
D03*
X8602500Y4897500D02*
D03*
X8827500Y8006992D02*
D03*
X7047500Y7990000D02*
D03*
X13612500Y6467500D02*
D03*
X11677500Y8067500D02*
D03*
X7402500Y6097500D02*
D03*
X7517500Y5895000D02*
D03*
X8000000Y5410000D02*
D03*
X8102500Y5517500D02*
D03*
X6525000Y6057500D02*
D03*
X7510804Y7571696D02*
D03*
X7510000Y7755000D02*
D03*
X11340000Y8767500D02*
D03*
X11347500Y9192500D02*
D03*
X13637500Y9025000D02*
D03*
X6860000Y6397500D02*
D03*
X6805000Y6475000D02*
D03*
X6747500Y6545000D02*
D03*
X6757500Y6665000D02*
D03*
X8101317Y6266183D02*
D03*
X7930000Y5597500D02*
D03*
X9347500Y6242500D02*
D03*
X9245000Y6340000D02*
D03*
X11465000Y6687500D02*
D03*
X11627500Y6852500D02*
D03*
X8030000Y8032500D02*
D03*
X8607500Y8205000D02*
D03*
X8326716Y8108284D02*
D03*
X8383284Y8051716D02*
D03*
X8515000Y6985000D02*
D03*
X8510000Y6700000D02*
D03*
X8730000Y7920000D02*
D03*
X9220000Y6822500D02*
D03*
X8910000Y7302500D02*
D03*
X8965000Y6917500D02*
D03*
X8380000D02*
D03*
X8295000Y6765000D02*
D03*
X8195000Y6830000D02*
D03*
X7062500Y8857500D02*
D03*
X6962500Y8860000D02*
D03*
X6855000Y8857500D02*
D03*
X10248462Y8553462D02*
D03*
X8392500Y8522500D02*
D03*
X7830000Y7330000D02*
D03*
X10245000Y8377500D02*
D03*
X10247500Y8462500D02*
D03*
X9690000Y8842500D02*
D03*
X9599186Y8813315D02*
D03*
X9534676Y8760324D02*
D03*
X9467340Y8710160D02*
D03*
X9365000Y8290000D02*
D03*
X8920000Y10170000D02*
D03*
X8980000Y8345000D02*
D03*
X8842500Y8207500D02*
D03*
X10755000Y9775000D02*
D03*
X10600000Y9777500D02*
D03*
X9962500Y6460000D02*
D03*
X9498297Y6711702D02*
D03*
X9585000Y5590000D02*
D03*
X7712500Y9140000D02*
D03*
X8920000Y10285000D02*
D03*
X8400000Y10167500D02*
D03*
X9347500Y10290000D02*
D03*
X9982500Y9317500D02*
D03*
X11292500Y9932500D02*
D03*
X10772500Y7665000D02*
D03*
X10247500Y8287500D02*
D03*
X10585000Y8357500D02*
D03*
X8997500Y8647500D02*
D03*
X10405962Y6860962D02*
D03*
X10527500Y6742500D02*
D03*
X12535000Y5357500D02*
D03*
X11535000Y4892500D02*
D03*
X10687500Y5247500D02*
D03*
X10245000Y5240000D02*
D03*
X7130000Y6127500D02*
D03*
X11165000Y7040000D02*
D03*
X11332500Y7035000D02*
D03*
X11065000Y6337500D02*
D03*
X6435000Y8102500D02*
D03*
X6712500Y7007500D02*
D03*
X6742500Y8052500D02*
D03*
X7180000Y7607500D02*
D03*
X9967424Y9152500D02*
D03*
X9967500Y8997500D02*
D03*
X8670000Y9435049D02*
D03*
X8492500Y9437362D02*
D03*
D67*
X7325000Y8542500D02*
D03*
X7400000D02*
D03*
X7249999D02*
D03*
%TF.MD5,4bf4d7a62296cae034ac0801f2d3fdf1*%
M02*
